<svg width="109" height="35" viewBox="0 0 109 35" fill="none" xmlns="http://www.w3.org/2000/svg">
<path d="M9.40909 23V11.3636H10.8182V21.75H16.2273V23H9.40909ZM21.8864 23.1818C21.0455 23.1818 20.3201 22.9962 19.7102 22.625C19.1042 22.25 18.6364 21.7273 18.3068 21.0568C17.9811 20.3826 17.8182 19.5985 17.8182 18.7045C17.8182 17.8106 17.9811 17.0227 18.3068 16.3409C18.6364 15.6553 19.0947 15.1212 19.6818 14.7386C20.2727 14.3523 20.9621 14.1591 21.75 14.1591C22.2045 14.1591 22.6534 14.2348 23.0966 14.3864C23.5398 14.5379 23.9432 14.7841 24.3068 15.125C24.6705 15.4621 24.9602 15.9091 25.1761 16.4659C25.392 17.0227 25.5 17.7083 25.5 18.5227V19.0909H18.7727V17.9318H24.1364C24.1364 17.4394 24.0379 17 23.8409 16.6136C23.6477 16.2273 23.3712 15.9223 23.0114 15.6989C22.6553 15.4754 22.2348 15.3636 21.75 15.3636C21.2159 15.3636 20.7538 15.4962 20.3636 15.7614C19.9773 16.0227 19.6799 16.3636 19.4716 16.7841C19.2633 17.2045 19.1591 17.6553 19.1591 18.1364V18.9091C19.1591 19.5682 19.2727 20.1269 19.5 20.5852C19.7311 21.0398 20.0511 21.3864 20.4602 21.625C20.8693 21.8598 21.3447 21.9773 21.8864 21.9773C22.2386 21.9773 22.5568 21.928 22.8409 21.8295C23.1288 21.7273 23.3769 21.5758 23.5852 21.375C23.7936 21.1705 23.9545 20.9167 24.0682 20.6136L25.3636 20.9773C25.2273 21.4167 24.9981 21.803 24.6761 22.1364C24.3542 22.4659 23.9564 22.7235 23.483 22.9091C23.0095 23.0909 22.4773 23.1818 21.8864 23.1818ZM31.0625 26.4545C30.4148 26.4545 29.858 26.3712 29.392 26.2045C28.9261 26.0417 28.5379 25.8258 28.2273 25.5568C27.9205 25.2917 27.6761 25.0076 27.4943 24.7045L28.5625 23.9545C28.6837 24.1136 28.8371 24.2955 29.0227 24.5C29.2083 24.7083 29.4621 24.8883 29.7841 25.0398C30.1098 25.1951 30.536 25.2727 31.0625 25.2727C31.767 25.2727 32.3485 25.1023 32.8068 24.7614C33.2652 24.4205 33.4943 23.8864 33.4943 23.1591V21.3864H33.3807C33.2822 21.5455 33.142 21.7424 32.9602 21.9773C32.7822 22.2083 32.5246 22.4148 32.1875 22.5966C31.8542 22.7746 31.4034 22.8636 30.8352 22.8636C30.1307 22.8636 29.4981 22.697 28.9375 22.3636C28.3807 22.0303 27.9394 21.5455 27.6136 20.9091C27.2917 20.2727 27.1307 19.5 27.1307 18.5909C27.1307 17.697 27.2879 16.9186 27.6023 16.2557C27.9167 15.589 28.3542 15.0739 28.9148 14.7102C29.4754 14.3428 30.1231 14.1591 30.858 14.1591C31.4261 14.1591 31.8769 14.2538 32.2102 14.4432C32.5473 14.6288 32.8049 14.8409 32.983 15.0795C33.1648 15.3144 33.3049 15.5076 33.4034 15.6591H33.5398V14.2727H34.8352V23.25C34.8352 24 34.6648 24.6098 34.3239 25.0795C33.9867 25.553 33.5322 25.8996 32.9602 26.1193C32.392 26.3428 31.7595 26.4545 31.0625 26.4545ZM31.017 21.6591C31.5549 21.6591 32.0095 21.536 32.3807 21.2898C32.7519 21.0436 33.0341 20.6894 33.2273 20.2273C33.4205 19.7652 33.517 19.2121 33.517 18.5682C33.517 17.9394 33.4223 17.3845 33.233 16.9034C33.0436 16.4223 32.7633 16.0455 32.392 15.7727C32.0208 15.5 31.5625 15.3636 31.017 15.3636C30.4489 15.3636 29.9754 15.5076 29.5966 15.7955C29.2216 16.0833 28.9394 16.4697 28.75 16.9545C28.5644 17.4394 28.4716 17.9773 28.4716 18.5682C28.4716 19.1742 28.5663 19.7102 28.7557 20.1761C28.9489 20.6383 29.233 21.0019 29.608 21.267C29.9867 21.5284 30.4564 21.6591 31.017 21.6591ZM39.858 23.2045C39.3049 23.2045 38.803 23.1004 38.3523 22.892C37.9015 22.6799 37.5436 22.375 37.2784 21.9773C37.0133 21.5758 36.8807 21.0909 36.8807 20.5227C36.8807 20.0227 36.9792 19.6174 37.1761 19.3068C37.3731 18.9924 37.6364 18.7462 37.9659 18.5682C38.2955 18.3902 38.6591 18.2576 39.0568 18.1705C39.4583 18.0795 39.8617 18.0076 40.267 17.9545C40.7973 17.8864 41.2273 17.8352 41.5568 17.8011C41.8902 17.7633 42.1326 17.7008 42.2841 17.6136C42.4394 17.5265 42.517 17.375 42.517 17.1591V17.1136C42.517 16.553 42.3636 16.1174 42.0568 15.8068C41.7538 15.4962 41.2936 15.3409 40.6761 15.3409C40.036 15.3409 39.5341 15.4811 39.1705 15.7614C38.8068 16.0417 38.5511 16.3409 38.4034 16.6591L37.1307 16.2045C37.358 15.6742 37.661 15.2614 38.0398 14.9659C38.4223 14.6667 38.839 14.4583 39.2898 14.3409C39.7443 14.2197 40.1913 14.1591 40.6307 14.1591C40.911 14.1591 41.233 14.1932 41.5966 14.2614C41.964 14.3258 42.3182 14.4602 42.6591 14.6648C43.0038 14.8693 43.2898 15.178 43.517 15.5909C43.7443 16.0038 43.858 16.5568 43.858 17.25V23H42.517V21.8182H42.4489C42.358 22.0076 42.2064 22.2102 41.9943 22.4261C41.7822 22.642 41.5 22.8258 41.1477 22.9773C40.7955 23.1288 40.3655 23.2045 39.858 23.2045ZM40.0625 22C40.5928 22 41.0398 21.8958 41.4034 21.6875C41.7708 21.4792 42.0473 21.2102 42.233 20.8807C42.4223 20.5511 42.517 20.2045 42.517 19.8409V18.6136C42.4602 18.6818 42.3352 18.7443 42.142 18.8011C41.9527 18.8542 41.733 18.9015 41.483 18.9432C41.2367 18.9811 40.9962 19.0152 40.7614 19.0455C40.5303 19.072 40.3428 19.0947 40.1989 19.1136C39.8504 19.1591 39.5246 19.233 39.2216 19.3352C38.9223 19.4337 38.6799 19.5833 38.4943 19.7841C38.3125 19.9811 38.2216 20.25 38.2216 20.5909C38.2216 21.0568 38.3939 21.4091 38.7386 21.6477C39.0871 21.8826 39.5284 22 40.0625 22ZM47.6463 11.3636V23H46.3054V11.3636H47.6463ZM55.9432 17.75V23H54.6023V14.2727H55.8977V15.6364H56.0114C56.2159 15.1932 56.5265 14.8371 56.9432 14.5682C57.3598 14.2955 57.8977 14.1591 58.5568 14.1591C59.1477 14.1591 59.6648 14.2803 60.108 14.5227C60.5511 14.7614 60.8958 15.125 61.142 15.6136C61.3883 16.0985 61.5114 16.7121 61.5114 17.4545V23H60.1705V17.5455C60.1705 16.8598 59.9924 16.3258 59.6364 15.9432C59.2803 15.5568 58.7917 15.3636 58.1705 15.3636C57.7424 15.3636 57.3598 15.4564 57.0227 15.642C56.6894 15.8277 56.4261 16.0985 56.233 16.4545C56.0398 16.8106 55.9432 17.2424 55.9432 17.75ZM67.5071 23.1818C66.7192 23.1818 66.0279 22.9943 65.4332 22.6193C64.8423 22.2443 64.3802 21.7197 64.0469 21.0455C63.7173 20.3712 63.5526 19.5833 63.5526 18.6818C63.5526 17.7727 63.7173 16.9792 64.0469 16.3011C64.3802 15.6231 64.8423 15.0966 65.4332 14.7216C66.0279 14.3466 66.7192 14.1591 67.5071 14.1591C68.295 14.1591 68.9844 14.3466 69.5753 14.7216C70.17 15.0966 70.6321 15.6231 70.9616 16.3011C71.295 16.9792 71.4616 17.7727 71.4616 18.6818C71.4616 19.5833 71.295 20.3712 70.9616 21.0455C70.6321 21.7197 70.17 22.2443 69.5753 22.6193C68.9844 22.9943 68.295 23.1818 67.5071 23.1818ZM67.5071 21.9773C68.1056 21.9773 68.598 21.8239 68.9844 21.517C69.3707 21.2102 69.6567 20.8068 69.8423 20.3068C70.0279 19.8068 70.1207 19.2652 70.1207 18.6818C70.1207 18.0985 70.0279 17.5549 69.8423 17.0511C69.6567 16.5473 69.3707 16.1402 68.9844 15.8295C68.598 15.5189 68.1056 15.3636 67.5071 15.3636C66.9086 15.3636 66.4162 15.5189 66.0298 15.8295C65.6435 16.1402 65.3575 16.5473 65.1719 17.0511C64.9863 17.5549 64.8935 18.0985 64.8935 18.6818C64.8935 19.2652 64.9863 19.8068 65.1719 20.3068C65.3575 20.8068 65.6435 21.2102 66.0298 21.517C66.4162 21.8239 66.9086 21.9773 67.5071 21.9773ZM77.304 14.2727V15.4091H72.7812V14.2727H77.304ZM74.0994 12.1818H75.4403V20.5C75.4403 20.8788 75.4953 21.1629 75.6051 21.3523C75.7188 21.5379 75.8627 21.6629 76.0369 21.7273C76.215 21.7879 76.4025 21.8182 76.5994 21.8182C76.7472 21.8182 76.8684 21.8106 76.9631 21.7955C77.0578 21.7765 77.1335 21.7614 77.1903 21.75L77.4631 22.9545C77.3722 22.9886 77.2453 23.0227 77.0824 23.0568C76.9195 23.0947 76.7131 23.1136 76.4631 23.1136C76.0843 23.1136 75.7131 23.0322 75.3494 22.8693C74.9896 22.7064 74.6903 22.4583 74.4517 22.125C74.2169 21.7917 74.0994 21.3712 74.0994 20.8636V12.1818ZM79.321 23V14.2727H80.6619V23H79.321ZM80.0028 12.8182C79.7415 12.8182 79.5161 12.7292 79.3267 12.5511C79.1411 12.3731 79.0483 12.1591 79.0483 11.9091C79.0483 11.6591 79.1411 11.4451 79.3267 11.267C79.5161 11.089 79.7415 11 80.0028 11C80.2642 11 80.4877 11.089 80.6733 11.267C80.8627 11.4451 80.9574 11.6591 80.9574 11.9091C80.9574 12.1591 80.8627 12.3731 80.6733 12.5511C80.4877 12.7292 80.2642 12.8182 80.0028 12.8182ZM86.6634 23.1818C85.8452 23.1818 85.1406 22.9886 84.5497 22.6023C83.9588 22.2159 83.5043 21.6837 83.1861 21.0057C82.8679 20.3277 82.7088 19.553 82.7088 18.6818C82.7088 17.7955 82.8717 17.0133 83.1974 16.3352C83.527 15.6534 83.9853 15.1212 84.5724 14.7386C85.1634 14.3523 85.8527 14.1591 86.6406 14.1591C87.2543 14.1591 87.8073 14.2727 88.2997 14.5C88.7921 14.7273 89.1955 15.0455 89.5099 15.4545C89.8243 15.8636 90.0194 16.3409 90.0952 16.8864H88.7543C88.652 16.4886 88.4247 16.1364 88.0724 15.8295C87.724 15.5189 87.2543 15.3636 86.6634 15.3636C86.1406 15.3636 85.6823 15.5 85.2884 15.7727C84.8982 16.0417 84.5933 16.4223 84.3736 16.9148C84.1577 17.4034 84.0497 17.9773 84.0497 18.6364C84.0497 19.3106 84.1558 19.8977 84.3679 20.3977C84.5838 20.8977 84.8868 21.286 85.277 21.5625C85.6709 21.839 86.133 21.9773 86.6634 21.9773C87.0118 21.9773 87.3281 21.9167 87.6122 21.7955C87.8963 21.6742 88.1368 21.5 88.3338 21.2727C88.5308 21.0455 88.6709 20.7727 88.7543 20.4545H90.0952C90.0194 20.9697 89.8319 21.4337 89.5327 21.8466C89.2372 22.2557 88.8452 22.5814 88.3565 22.8239C87.8717 23.0625 87.3073 23.1818 86.6634 23.1818ZM95.7145 23.1818C94.8736 23.1818 94.1482 22.9962 93.5384 22.625C92.9323 22.25 92.4645 21.7273 92.1349 21.0568C91.8092 20.3826 91.6463 19.5985 91.6463 18.7045C91.6463 17.8106 91.8092 17.0227 92.1349 16.3409C92.4645 15.6553 92.9228 15.1212 93.5099 14.7386C94.1009 14.3523 94.7902 14.1591 95.5781 14.1591C96.0327 14.1591 96.4815 14.2348 96.9247 14.3864C97.3679 14.5379 97.7713 14.7841 98.1349 15.125C98.4986 15.4621 98.7884 15.9091 99.0043 16.4659C99.2202 17.0227 99.3281 17.7083 99.3281 18.5227V19.0909H92.6009V17.9318H97.9645C97.9645 17.4394 97.866 17 97.669 16.6136C97.4759 16.2273 97.1993 15.9223 96.8395 15.6989C96.4834 15.4754 96.063 15.3636 95.5781 15.3636C95.044 15.3636 94.5819 15.4962 94.1918 15.7614C93.8054 16.0227 93.508 16.3636 93.2997 16.7841C93.0914 17.2045 92.9872 17.6553 92.9872 18.1364V18.9091C92.9872 19.5682 93.1009 20.1269 93.3281 20.5852C93.5592 21.0398 93.8793 21.3864 94.2884 21.625C94.6974 21.8598 95.1728 21.9773 95.7145 21.9773C96.0668 21.9773 96.3849 21.928 96.669 21.8295C96.9569 21.7273 97.205 21.5758 97.4134 21.375C97.6217 21.1705 97.7827 20.9167 97.8963 20.6136L99.1918 20.9773C99.0554 21.4167 98.8262 21.803 98.5043 22.1364C98.1823 22.4659 97.7846 22.7235 97.3111 22.9091C96.8376 23.0909 96.3054 23.1818 95.7145 23.1818Z" fill="#A8A8A8"/>
</svg>
