<svg width="232" height="47" viewBox="0 0 232 47" fill="none" xmlns="http://www.w3.org/2000/svg">
<mask id="mask0_285828_1479" style="mask-type:alpha" maskUnits="userSpaceOnUse" x="56" y="8" width="30" height="31">
<rect x="56" y="8.98291" width="30" height="30" fill="#D9D9D9"/>
</mask>
<g mask="url(#mask0_285828_1479)">
<path d="M60.6265 36.1853C59.9558 36.1853 59.3816 35.9465 58.904 35.4688C58.4263 34.9912 58.1875 34.417 58.1875 33.7462V16.6731C58.1875 16.0023 58.4263 15.4282 58.904 14.9505C59.3816 14.4729 59.9558 14.2341 60.6265 14.2341H71.5107L69.0716 16.6731H60.6265V33.7462H77.6997V25.2706L80.1387 22.8316V33.7462C80.1387 34.417 79.8999 34.9912 79.4223 35.4688C78.9446 35.9465 78.3704 36.1853 77.6997 36.1853H60.6265ZM74.2546 14.9353L75.9924 16.6426L67.9436 24.6914V26.4292H69.6509L77.7302 18.3499L79.468 20.0572L71.3887 28.1365C71.1651 28.3601 70.906 28.5379 70.6113 28.67C70.3166 28.8021 70.0066 28.8682 69.6814 28.8682H66.7241C66.3786 28.8682 66.0889 28.7513 65.8552 28.5176C65.6214 28.2839 65.5046 27.9942 65.5046 27.6487V24.6914C65.5046 24.3662 65.5655 24.0562 65.6875 23.7615C65.8095 23.4668 65.9822 23.2076 66.2058 22.9841L74.2546 14.9353ZM79.468 20.0572L74.2546 14.9353L77.3034 11.8865C77.7912 11.3987 78.3755 11.1548 79.0564 11.1548C79.7373 11.1548 80.3115 11.3987 80.779 11.8865L82.4863 13.6243C82.9538 14.0918 83.1875 14.6609 83.1875 15.3316C83.1875 16.0023 82.9538 16.5715 82.4863 17.0389L79.468 20.0572Z" fill="#CDCDCD"/>
</g>
<path d="M95.8864 29.4829H94.4091L98.6818 17.8465H100.136L104.409 29.4829H102.932L99.4545 19.6875H99.3636L95.8864 29.4829ZM96.4318 24.9375H102.386V26.1875H96.4318V24.9375ZM109.335 29.6647C108.608 29.6647 107.966 29.481 107.409 29.1136C106.852 28.7424 106.417 28.2197 106.102 27.5454C105.788 26.8674 105.631 26.0662 105.631 25.142C105.631 24.2253 105.788 23.4299 106.102 22.7556C106.417 22.0814 106.854 21.5606 107.415 21.1931C107.975 20.8257 108.623 20.642 109.358 20.642C109.926 20.642 110.375 20.7367 110.705 20.9261C111.038 21.1117 111.292 21.3238 111.466 21.5625C111.644 21.7973 111.782 21.9905 111.881 22.142H111.994V17.8465H113.335V29.4829H112.04V28.142H111.881C111.782 28.3011 111.642 28.5018 111.46 28.7443C111.278 28.9829 111.019 29.1969 110.682 29.3863C110.345 29.5719 109.896 29.6647 109.335 29.6647ZM109.517 28.4602C110.055 28.4602 110.509 28.32 110.881 28.0397C111.252 27.7556 111.534 27.3636 111.727 26.8636C111.92 26.3598 112.017 25.7784 112.017 25.1193C112.017 24.4678 111.922 23.8977 111.733 23.409C111.544 22.9166 111.263 22.534 110.892 22.2613C110.521 21.9848 110.063 21.8465 109.517 21.8465C108.949 21.8465 108.475 21.9924 108.097 22.284C107.722 22.5719 107.439 22.964 107.25 23.4602C107.064 23.9526 106.972 24.5056 106.972 25.1193C106.972 25.7405 107.066 26.3049 107.256 26.8125C107.449 27.3162 107.733 27.7178 108.108 28.017C108.487 28.3125 108.956 28.4602 109.517 28.4602ZM119.273 29.6647C118.545 29.6647 117.903 29.481 117.347 29.1136C116.79 28.7424 116.354 28.2197 116.04 27.5454C115.725 26.8674 115.568 26.0662 115.568 25.142C115.568 24.2253 115.725 23.4299 116.04 22.7556C116.354 22.0814 116.792 21.5606 117.352 21.1931C117.913 20.8257 118.561 20.642 119.295 20.642C119.864 20.642 120.313 20.7367 120.642 20.9261C120.975 21.1117 121.229 21.3238 121.403 21.5625C121.581 21.7973 121.72 21.9905 121.818 22.142H121.932V17.8465H123.273V29.4829H121.977V28.142H121.818C121.72 28.3011 121.58 28.5018 121.398 28.7443C121.216 28.9829 120.956 29.1969 120.619 29.3863C120.282 29.5719 119.833 29.6647 119.273 29.6647ZM119.455 28.4602C119.992 28.4602 120.447 28.32 120.818 28.0397C121.189 27.7556 121.472 27.3636 121.665 26.8636C121.858 26.3598 121.955 25.7784 121.955 25.1193C121.955 24.4678 121.86 23.8977 121.67 23.409C121.481 22.9166 121.201 22.534 120.83 22.2613C120.458 21.9848 120 21.8465 119.455 21.8465C118.886 21.8465 118.413 21.9924 118.034 22.284C117.659 22.5719 117.377 22.964 117.188 23.4602C117.002 23.9526 116.909 24.5056 116.909 25.1193C116.909 25.7405 117.004 26.3049 117.193 26.8125C117.386 27.3162 117.67 27.7178 118.045 28.017C118.424 28.3125 118.894 28.4602 119.455 28.4602ZM129.96 19.0965V17.8465H138.688V19.0965H135.028V29.4829H133.619V19.0965H129.96ZM142.061 29.6875C141.508 29.6875 141.006 29.5833 140.555 29.375C140.105 29.1628 139.747 28.8579 139.482 28.4602C139.216 28.0587 139.084 27.5738 139.084 27.0056C139.084 26.5056 139.182 26.1003 139.379 25.7897C139.576 25.4753 139.839 25.2291 140.169 25.0511C140.499 24.8731 140.862 24.7405 141.26 24.6534C141.661 24.5625 142.065 24.4905 142.47 24.4375C143 24.3693 143.43 24.3181 143.76 24.284C144.093 24.2462 144.336 24.1837 144.487 24.0965C144.643 24.0094 144.72 23.8579 144.72 23.642V23.5965C144.72 23.0359 144.567 22.6003 144.26 22.2897C143.957 21.9791 143.497 21.8238 142.879 21.8238C142.239 21.8238 141.737 21.964 141.374 22.2443C141.01 22.5246 140.754 22.8238 140.607 23.142L139.334 22.6875C139.561 22.1572 139.864 21.7443 140.243 21.4488C140.625 21.1496 141.042 20.9412 141.493 20.8238C141.947 20.7026 142.394 20.642 142.834 20.642C143.114 20.642 143.436 20.6761 143.8 20.7443C144.167 20.8087 144.521 20.9431 144.862 21.1477C145.207 21.3522 145.493 21.6609 145.72 22.0738C145.947 22.4867 146.061 23.0397 146.061 23.7329V29.4829H144.72V28.3011H144.652C144.561 28.4905 144.41 28.6931 144.197 28.909C143.985 29.125 143.703 29.3087 143.351 29.4602C142.999 29.6117 142.569 29.6875 142.061 29.6875ZM142.266 28.4829C142.796 28.4829 143.243 28.3787 143.607 28.1704C143.974 27.9621 144.25 27.6931 144.436 27.3636C144.625 27.034 144.72 26.6875 144.72 26.3238V25.0965C144.663 25.1647 144.538 25.2272 144.345 25.284C144.156 25.3371 143.936 25.3844 143.686 25.4261C143.44 25.464 143.199 25.4981 142.964 25.5284C142.733 25.5549 142.546 25.5776 142.402 25.5965C142.054 25.642 141.728 25.7159 141.425 25.8181C141.125 25.9166 140.883 26.0662 140.697 26.267C140.516 26.464 140.425 26.7329 140.425 27.0738C140.425 27.5397 140.597 27.892 140.942 28.1306C141.29 28.3655 141.732 28.4829 142.266 28.4829ZM154.69 22.7102L153.486 23.0511C153.41 22.8503 153.298 22.6553 153.151 22.4659C153.007 22.2727 152.81 22.1136 152.56 21.9886C152.31 21.8636 151.99 21.8011 151.599 21.8011C151.065 21.8011 150.62 21.9242 150.264 22.1704C149.912 22.4128 149.736 22.7215 149.736 23.0965C149.736 23.4299 149.857 23.6931 150.099 23.8863C150.342 24.0795 150.721 24.2405 151.236 24.3693L152.531 24.6875C153.312 24.8768 153.893 25.1666 154.276 25.5568C154.658 25.9431 154.849 26.4412 154.849 27.0511C154.849 27.5511 154.705 27.9981 154.418 28.392C154.134 28.7859 153.736 29.0965 153.224 29.3238C152.713 29.5511 152.118 29.6647 151.44 29.6647C150.55 29.6647 149.813 29.4715 149.23 29.0852C148.647 28.6988 148.277 28.1344 148.122 27.392L149.395 27.0738C149.516 27.5435 149.745 27.8958 150.082 28.1306C150.423 28.3655 150.868 28.4829 151.418 28.4829C152.043 28.4829 152.539 28.3503 152.906 28.0852C153.277 27.8162 153.463 27.4943 153.463 27.1193C153.463 26.8162 153.357 26.5625 153.145 26.3579C152.933 26.1496 152.607 25.9943 152.168 25.892L150.713 25.5511C149.914 25.3617 149.327 25.0681 148.952 24.6704C148.58 24.2689 148.395 23.767 148.395 23.1647C148.395 22.6723 148.533 22.2367 148.81 21.8579C149.09 21.4791 149.471 21.1818 149.952 20.9659C150.437 20.75 150.986 20.642 151.599 20.642C152.463 20.642 153.141 20.8314 153.634 21.2102C154.13 21.589 154.482 22.089 154.69 22.7102ZM158.118 26.3011L158.095 24.642H158.368L162.186 20.7556H163.845L159.777 24.8693H159.663L158.118 26.3011ZM156.868 29.4829V17.8465H158.209V29.4829H156.868ZM162.413 29.4829L159.004 25.1647L159.959 24.2329L164.118 29.4829H162.413Z" fill="#CDCDCD"/>
</svg>
