<svg width="232" height="47" viewBox="0 0 232 47" fill="none" xmlns="http://www.w3.org/2000/svg">
<path d="M78.9544 13.7556L78.9545 34.21C78.9538 34.8125 78.7142 35.3903 78.2881 35.8163C77.862 36.2424 77.2843 36.4821 76.6817 36.4827L72.1363 36.4827C71.5338 36.4821 70.956 36.2424 70.53 35.8163C70.1039 35.3903 69.8642 34.8125 69.8636 34.21L69.8636 13.7556C69.8642 13.1531 70.1039 12.5753 70.53 12.1493C70.956 11.7232 71.5338 11.4835 72.1363 11.4829L76.6817 11.4829C77.2843 11.4835 77.862 11.7232 78.2881 12.1493C78.7142 12.5753 78.9538 13.1531 78.9544 13.7556ZM72.1363 34.21L76.6817 34.21L76.6817 13.7556L72.1363 13.7556L72.1363 34.21ZM72.1363 13.7556L72.1363 34.21C72.1357 34.8125 71.8961 35.3902 71.47 35.8163C71.0439 36.2424 70.4662 36.482 69.8636 36.4826L65.3182 36.4826C64.7157 36.482 64.1379 36.2424 63.7119 35.8163C63.2858 35.3902 63.0461 34.8125 63.0455 34.2099L63.0455 13.7556C63.0461 13.153 63.2858 12.5753 63.7119 12.1492C64.1379 11.7231 64.7157 11.4835 65.3182 11.4829L69.8636 11.4829C70.4662 11.4835 71.0439 11.7231 71.47 12.1492C71.8961 12.5753 72.1357 13.1531 72.1363 13.7556ZM65.3182 34.2099L69.8636 34.21L69.8636 13.7556L65.3182 13.7556L65.3182 34.2099ZM65.3182 13.7556L65.3182 34.2099C65.3176 34.8125 65.078 35.3902 64.6519 35.8163C64.2258 36.2424 63.6481 36.482 63.0455 36.4826L58.5001 36.4826C57.8975 36.482 57.3198 36.2424 56.8937 35.8163C56.4677 35.3902 56.228 34.8125 56.2274 34.2099L56.2274 13.7556C56.228 13.153 56.4677 12.5753 56.8937 12.1492C57.3198 11.7231 57.8975 11.4835 58.5001 11.4829L63.0455 11.4829C63.6481 11.4835 64.2258 11.7231 64.6519 12.1492C65.078 12.5753 65.3176 13.153 65.3182 13.7556ZM58.5001 34.2099L63.0455 34.2099L63.0455 13.7556L58.5001 13.7556L58.5001 34.2099Z" fill="#CDCDCD"/>
<path d="M85.7726 13.7559L85.7726 34.2102C85.772 34.8128 85.5323 35.3905 85.1062 35.8166C84.6802 36.2427 84.1024 36.4823 83.4999 36.4829L78.9545 36.4829C78.3519 36.4823 77.7742 36.2427 77.3481 35.8166C76.922 35.3905 76.6824 34.8125 76.6817 34.21L76.6817 13.7556C76.6823 13.1531 76.922 12.5756 77.3481 12.1495C77.7742 11.7234 78.3519 11.4838 78.9544 11.4832L83.4999 11.4832C84.1024 11.4838 84.6801 11.7234 85.1062 12.1495C85.5323 12.5756 85.772 13.1533 85.7726 13.7559ZM78.9545 34.21L83.4999 34.2102L83.4999 13.7559L78.9544 13.7556L78.9545 34.21Z" fill="#CDCDCD"/>
<path d="M95.4091 29.4829V17.8465H99.4773C100.288 17.8465 100.956 17.9867 101.483 18.267C102.009 18.5435 102.402 18.9166 102.659 19.3863C102.917 19.8522 103.045 20.3693 103.045 20.9375C103.045 21.4375 102.956 21.8503 102.778 22.1761C102.604 22.5018 102.373 22.7594 102.085 22.9488C101.801 23.1382 101.492 23.2784 101.159 23.3693V23.4829C101.515 23.5056 101.873 23.6306 102.233 23.8579C102.593 24.0852 102.894 24.4109 103.136 24.8352C103.379 25.2594 103.5 25.7784 103.5 26.392C103.5 26.9753 103.367 27.5 103.102 27.9659C102.837 28.4318 102.419 28.8011 101.847 29.0738C101.275 29.3465 100.53 29.4829 99.6136 29.4829H95.4091ZM96.8182 28.2329H99.6136C100.534 28.2329 101.188 28.0549 101.574 27.6988C101.964 27.339 102.159 26.9034 102.159 26.392C102.159 25.9981 102.059 25.6344 101.858 25.3011C101.657 24.964 101.371 24.695 101 24.4943C100.629 24.2897 100.189 24.1875 99.6818 24.1875H96.8182V28.2329ZM96.8182 22.9602H99.4318C99.8561 22.9602 100.239 22.8768 100.58 22.7102C100.924 22.5435 101.197 22.3087 101.398 22.0056C101.602 21.7026 101.705 21.3465 101.705 20.9375C101.705 20.4261 101.527 19.9924 101.17 19.6363C100.814 19.2765 100.25 19.0965 99.4773 19.0965H96.8182V22.9602ZM109.179 29.6647C108.391 29.6647 107.7 29.4772 107.105 29.1022C106.514 28.7272 106.052 28.2026 105.719 27.5284C105.389 26.8541 105.224 26.0662 105.224 25.1647C105.224 24.2556 105.389 23.4621 105.719 22.784C106.052 22.106 106.514 21.5795 107.105 21.2045C107.7 20.8295 108.391 20.642 109.179 20.642C109.967 20.642 110.656 20.8295 111.247 21.2045C111.842 21.5795 112.304 22.106 112.634 22.784C112.967 23.4621 113.134 24.2556 113.134 25.1647C113.134 26.0662 112.967 26.8541 112.634 27.5284C112.304 28.2026 111.842 28.7272 111.247 29.1022C110.656 29.4772 109.967 29.6647 109.179 29.6647ZM109.179 28.4602C109.777 28.4602 110.27 28.3068 110.656 28C111.043 27.6931 111.329 27.2897 111.514 26.7897C111.7 26.2897 111.793 25.7481 111.793 25.1647C111.793 24.5814 111.7 24.0378 111.514 23.534C111.329 23.0303 111.043 22.6231 110.656 22.3125C110.27 22.0018 109.777 21.8465 109.179 21.8465C108.58 21.8465 108.088 22.0018 107.702 22.3125C107.315 22.6231 107.029 23.0303 106.844 23.534C106.658 24.0378 106.565 24.5814 106.565 25.1647C106.565 25.7481 106.658 26.2897 106.844 26.7897C107.029 27.2897 107.315 27.6931 107.702 28C108.088 28.3068 108.58 28.4602 109.179 28.4602ZM117.749 29.6875C117.196 29.6875 116.694 29.5833 116.243 29.375C115.792 29.1628 115.434 28.8579 115.169 28.4602C114.904 28.0587 114.771 27.5738 114.771 27.0056C114.771 26.5056 114.87 26.1003 115.067 25.7897C115.264 25.4753 115.527 25.2291 115.857 25.0511C116.186 24.8731 116.55 24.7405 116.947 24.6534C117.349 24.5625 117.752 24.4905 118.158 24.4375C118.688 24.3693 119.118 24.3181 119.447 24.284C119.781 24.2462 120.023 24.1837 120.175 24.0965C120.33 24.0094 120.408 23.8579 120.408 23.642V23.5965C120.408 23.0359 120.254 22.6003 119.947 22.2897C119.644 21.9791 119.184 21.8238 118.567 21.8238C117.927 21.8238 117.425 21.964 117.061 22.2443C116.697 22.5246 116.442 22.8238 116.294 23.142L115.021 22.6875C115.249 22.1572 115.552 21.7443 115.93 21.4488C116.313 21.1496 116.73 20.9412 117.18 20.8238C117.635 20.7026 118.082 20.642 118.521 20.642C118.802 20.642 119.124 20.6761 119.487 20.7443C119.855 20.8087 120.209 20.9431 120.55 21.1477C120.894 21.3522 121.18 21.6609 121.408 22.0738C121.635 22.4867 121.749 23.0397 121.749 23.7329V29.4829H120.408V28.3011H120.339C120.249 28.4905 120.097 28.6931 119.885 28.909C119.673 29.125 119.391 29.3087 119.038 29.4602C118.686 29.6117 118.256 29.6875 117.749 29.6875ZM117.953 28.4829C118.483 28.4829 118.93 28.3787 119.294 28.1704C119.661 27.9621 119.938 27.6931 120.124 27.3636C120.313 27.034 120.408 26.6875 120.408 26.3238V25.0965C120.351 25.1647 120.226 25.2272 120.033 25.284C119.843 25.3371 119.624 25.3844 119.374 25.4261C119.127 25.464 118.887 25.4981 118.652 25.5284C118.421 25.5549 118.233 25.5776 118.089 25.5965C117.741 25.642 117.415 25.7159 117.112 25.8181C116.813 25.9166 116.571 26.0662 116.385 26.267C116.203 26.464 116.112 26.7329 116.112 27.0738C116.112 27.5397 116.285 27.892 116.629 28.1306C116.978 28.3655 117.419 28.4829 117.953 28.4829ZM124.196 29.4829V20.7556H125.491V22.0738H125.582C125.741 21.642 126.029 21.2916 126.446 21.0227C126.863 20.7537 127.332 20.6193 127.855 20.6193C127.954 20.6193 128.077 20.6212 128.224 20.625C128.372 20.6287 128.484 20.6344 128.56 20.642V22.0056C128.514 21.9943 128.41 21.9772 128.247 21.9545C128.088 21.928 127.92 21.9147 127.741 21.9147C127.317 21.9147 126.938 22.0037 126.605 22.1818C126.276 22.356 126.014 22.5984 125.821 22.909C125.632 23.2159 125.537 23.5662 125.537 23.9602V29.4829H124.196ZM133.179 29.6647C132.452 29.6647 131.81 29.481 131.253 29.1136C130.696 28.7424 130.26 28.2197 129.946 27.5454C129.632 26.8674 129.474 26.0662 129.474 25.142C129.474 24.2253 129.632 23.4299 129.946 22.7556C130.26 22.0814 130.698 21.5606 131.259 21.1931C131.819 20.8257 132.467 20.642 133.202 20.642C133.77 20.642 134.219 20.7367 134.548 20.9261C134.882 21.1117 135.135 21.3238 135.31 21.5625C135.488 21.7973 135.626 21.9905 135.724 22.142H135.838V17.8465H137.179V29.4829H135.884V28.142H135.724C135.626 28.3011 135.486 28.5018 135.304 28.7443C135.122 28.9829 134.863 29.1969 134.526 29.3863C134.188 29.5719 133.74 29.6647 133.179 29.6647ZM133.361 28.4602C133.899 28.4602 134.353 28.32 134.724 28.0397C135.096 27.7556 135.378 27.3636 135.571 26.8636C135.764 26.3598 135.861 25.7784 135.861 25.1193C135.861 24.4678 135.766 23.8977 135.577 23.409C135.387 22.9166 135.107 22.534 134.736 22.2613C134.365 21.9848 133.906 21.8465 133.361 21.8465C132.793 21.8465 132.319 21.9924 131.94 22.284C131.565 22.5719 131.283 22.964 131.094 23.4602C130.908 23.9526 130.815 24.5056 130.815 25.1193C130.815 25.7405 130.91 26.3049 131.099 26.8125C131.293 27.3162 131.577 27.7178 131.952 28.017C132.33 28.3125 132.8 28.4602 133.361 28.4602Z" fill="#CDCDCD"/>
</svg>
