<svg width="232" height="47" viewBox="0 0 232 47" fill="none" xmlns="http://www.w3.org/2000/svg">
<mask id="mask0_285828_1491" style="mask-type:alpha" maskUnits="userSpaceOnUse" x="56" y="8" width="30" height="31">
<rect x="56" y="8.98291" width="30" height="30" fill="#D9D9D9"/>
</mask>
<g mask="url(#mask0_285828_1491)">
<path d="M71 31.4829C69.8333 31.4829 68.7188 31.6652 67.6563 32.0298C66.5938 32.3944 65.625 32.9412 64.75 33.6704V33.9829H77.25V33.6704C76.375 32.9412 75.4062 32.3944 74.3438 32.0298C73.2812 31.6652 72.1667 31.4829 71 31.4829ZM62.25 32.5454C63.375 31.4412 64.6823 30.5715 66.1719 29.936C67.6615 29.3006 69.2708 28.9829 71 28.9829C72.7292 28.9829 74.3385 29.3006 75.8281 29.936C77.3177 30.5715 78.625 31.4412 79.75 32.5454V16.4829H62.25V32.5454ZM71 26.4829C69.7917 26.4829 68.7604 26.0558 67.9062 25.2017C67.0521 24.3475 66.625 23.3162 66.625 22.1079C66.625 20.8996 67.0521 19.8683 67.9062 19.0142C68.7604 18.16 69.7917 17.7329 71 17.7329C72.2083 17.7329 73.2396 18.16 74.0938 19.0142C74.9479 19.8683 75.375 20.8996 75.375 22.1079C75.375 23.3162 74.9479 24.3475 74.0938 25.2017C73.2396 26.0558 72.2083 26.4829 71 26.4829ZM71 23.9829C71.5208 23.9829 71.9635 23.8006 72.3281 23.436C72.6927 23.0715 72.875 22.6287 72.875 22.1079C72.875 21.5871 72.6927 21.1444 72.3281 20.7798C71.9635 20.4152 71.5208 20.2329 71 20.2329C70.4792 20.2329 70.0365 20.4152 69.6719 20.7798C69.3073 21.1444 69.125 21.5871 69.125 22.1079C69.125 22.6287 69.3073 23.0715 69.6719 23.436C70.0365 23.8006 70.4792 23.9829 71 23.9829ZM62.25 36.4829C61.5625 36.4829 60.974 36.2381 60.4844 35.7485C59.9948 35.259 59.75 34.6704 59.75 33.9829V16.4829C59.75 15.7954 59.9948 15.2069 60.4844 14.7173C60.974 14.2277 61.5625 13.9829 62.25 13.9829H63.5V11.4829H66V13.9829H76V11.4829H78.5V13.9829H79.75C80.4375 13.9829 81.026 14.2277 81.5156 14.7173C82.0052 15.2069 82.25 15.7954 82.25 16.4829V33.9829C82.25 34.6704 82.0052 35.259 81.5156 35.7485C81.026 36.2381 80.4375 36.4829 79.75 36.4829H62.25Z" fill="#CDCDCD"/>
</g>
<path d="M104.773 21.4829H103.364C103.28 21.0776 103.134 20.7215 102.926 20.4147C102.722 20.1079 102.472 19.8503 102.176 19.642C101.884 19.4299 101.561 19.2708 101.205 19.1647C100.848 19.0587 100.477 19.0056 100.091 19.0056C99.3864 19.0056 98.7481 19.1837 98.1761 19.5397C97.608 19.8958 97.1553 20.4204 96.8182 21.1136C96.4848 21.8068 96.3182 22.6572 96.3182 23.6647C96.3182 24.6723 96.4848 25.5227 96.8182 26.2159C97.1553 26.909 97.608 27.4337 98.1761 27.7897C98.7481 28.1458 99.3864 28.3238 100.091 28.3238C100.477 28.3238 100.848 28.2708 101.205 28.1647C101.561 28.0587 101.884 27.9015 102.176 27.6931C102.472 27.481 102.722 27.2215 102.926 26.9147C103.134 26.6041 103.28 26.2481 103.364 25.8465H104.773C104.667 26.4412 104.473 26.9734 104.193 27.4431C103.913 27.9128 103.564 28.3125 103.148 28.642C102.731 28.9678 102.263 29.2159 101.744 29.3863C101.229 29.5568 100.678 29.642 100.091 29.642C99.0985 29.642 98.2159 29.3996 97.4432 28.9147C96.6705 28.4299 96.0625 27.7405 95.6193 26.8465C95.1761 25.9526 94.9545 24.892 94.9545 23.6647C94.9545 22.4375 95.1761 21.3768 95.6193 20.4829C96.0625 19.589 96.6705 18.8996 97.4432 18.4147C98.2159 17.9299 99.0985 17.6875 100.091 17.6875C100.678 17.6875 101.229 17.7727 101.744 17.9431C102.263 18.1136 102.731 18.3636 103.148 18.6931C103.564 19.0189 103.913 19.4166 104.193 19.8863C104.473 20.3522 104.667 20.8844 104.773 21.4829ZM110.413 29.6647C109.625 29.6647 108.934 29.4772 108.339 29.1022C107.749 28.7272 107.286 28.2026 106.953 27.5284C106.624 26.8541 106.459 26.0662 106.459 25.1647C106.459 24.2556 106.624 23.4621 106.953 22.784C107.286 22.106 107.749 21.5795 108.339 21.2045C108.934 20.8295 109.625 20.642 110.413 20.642C111.201 20.642 111.891 20.8295 112.482 21.2045C113.076 21.5795 113.538 22.106 113.868 22.784C114.201 23.4621 114.368 24.2556 114.368 25.1647C114.368 26.0662 114.201 26.8541 113.868 27.5284C113.538 28.2026 113.076 28.7272 112.482 29.1022C111.891 29.4772 111.201 29.6647 110.413 29.6647ZM110.413 28.4602C111.012 28.4602 111.504 28.3068 111.891 28C112.277 27.6931 112.563 27.2897 112.749 26.7897C112.934 26.2897 113.027 25.7481 113.027 25.1647C113.027 24.5814 112.934 24.0378 112.749 23.534C112.563 23.0303 112.277 22.6231 111.891 22.3125C111.504 22.0018 111.012 21.8465 110.413 21.8465C109.815 21.8465 109.322 22.0018 108.936 22.3125C108.55 22.6231 108.264 23.0303 108.078 23.534C107.893 24.0378 107.8 24.5814 107.8 25.1647C107.8 25.7481 107.893 26.2897 108.078 26.7897C108.264 27.2897 108.55 27.6931 108.936 28C109.322 28.3068 109.815 28.4602 110.413 28.4602ZM117.756 24.2329V29.4829H116.415V20.7556H117.71V22.1193H117.824C118.028 21.6761 118.339 21.32 118.756 21.0511C119.172 20.7784 119.71 20.642 120.369 20.642C120.96 20.642 121.477 20.7632 121.92 21.0056C122.364 21.2443 122.708 21.6079 122.955 22.0965C123.201 22.5814 123.324 23.195 123.324 23.9375V29.4829H121.983V24.0284C121.983 23.3428 121.805 22.8087 121.449 22.4261C121.093 22.0397 120.604 21.8465 119.983 21.8465C119.555 21.8465 119.172 21.9393 118.835 22.125C118.502 22.3106 118.239 22.5814 118.045 22.9375C117.852 23.2935 117.756 23.7253 117.756 24.2329ZM129.57 20.7556V21.892H125.047V20.7556H129.57ZM126.365 18.6647H127.706V26.9829C127.706 27.3617 127.761 27.6458 127.871 27.8352C127.984 28.0208 128.128 28.1458 128.303 28.2102C128.481 28.2708 128.668 28.3011 128.865 28.3011C129.013 28.3011 129.134 28.2935 129.229 28.2784C129.323 28.2594 129.399 28.2443 129.456 28.2329L129.729 29.4375C129.638 29.4715 129.511 29.5056 129.348 29.5397C129.185 29.5776 128.979 29.5965 128.729 29.5965C128.35 29.5965 127.979 29.5151 127.615 29.3522C127.255 29.1893 126.956 28.9412 126.717 28.6079C126.482 28.2746 126.365 27.8541 126.365 27.3465V18.6647ZM134.155 29.6875C133.602 29.6875 133.1 29.5833 132.649 29.375C132.198 29.1628 131.84 28.8579 131.575 28.4602C131.31 28.0587 131.178 27.5738 131.178 27.0056C131.178 26.5056 131.276 26.1003 131.473 25.7897C131.67 25.4753 131.933 25.2291 132.263 25.0511C132.592 24.8731 132.956 24.7405 133.354 24.6534C133.755 24.5625 134.159 24.4905 134.564 24.4375C135.094 24.3693 135.524 24.3181 135.854 24.284C136.187 24.2462 136.429 24.1837 136.581 24.0965C136.736 24.0094 136.814 23.8579 136.814 23.642V23.5965C136.814 23.0359 136.661 22.6003 136.354 22.2897C136.051 21.9791 135.59 21.8238 134.973 21.8238C134.333 21.8238 133.831 21.964 133.467 22.2443C133.104 22.5246 132.848 22.8238 132.7 23.142L131.428 22.6875C131.655 22.1572 131.958 21.7443 132.337 21.4488C132.719 21.1496 133.136 20.9412 133.587 20.8238C134.041 20.7026 134.488 20.642 134.928 20.642C135.208 20.642 135.53 20.6761 135.893 20.7443C136.261 20.8087 136.615 20.9431 136.956 21.1477C137.301 21.3522 137.587 21.6609 137.814 22.0738C138.041 22.4867 138.155 23.0397 138.155 23.7329V29.4829H136.814V28.3011H136.746C136.655 28.4905 136.503 28.6931 136.291 28.909C136.079 29.125 135.797 29.3087 135.445 29.4602C135.092 29.6117 134.662 29.6875 134.155 29.6875ZM134.359 28.4829C134.89 28.4829 135.337 28.3787 135.7 28.1704C136.068 27.9621 136.344 27.6931 136.53 27.3636C136.719 27.034 136.814 26.6875 136.814 26.3238V25.0965C136.757 25.1647 136.632 25.2272 136.439 25.284C136.25 25.3371 136.03 25.3844 135.78 25.4261C135.534 25.464 135.293 25.4981 135.058 25.5284C134.827 25.5549 134.64 25.5776 134.496 25.5965C134.147 25.642 133.821 25.7159 133.518 25.8181C133.219 25.9166 132.977 26.0662 132.791 26.267C132.609 26.464 132.518 26.7329 132.518 27.0738C132.518 27.5397 132.691 27.892 133.036 28.1306C133.384 28.3655 133.825 28.4829 134.359 28.4829ZM144.148 29.6647C143.33 29.6647 142.625 29.4715 142.034 29.0852C141.443 28.6988 140.989 28.1666 140.67 27.4886C140.352 26.8106 140.193 26.0359 140.193 25.1647C140.193 24.2784 140.356 23.4962 140.682 22.8181C141.011 22.1363 141.47 21.6041 142.057 21.2215C142.648 20.8352 143.337 20.642 144.125 20.642C144.739 20.642 145.292 20.7556 145.784 20.9829C146.277 21.2102 146.68 21.5284 146.994 21.9375C147.309 22.3465 147.504 22.8238 147.58 23.3693H146.239C146.136 22.9715 145.909 22.6193 145.557 22.3125C145.208 22.0018 144.739 21.8465 144.148 21.8465C143.625 21.8465 143.167 21.9829 142.773 22.2556C142.383 22.5246 142.078 22.9053 141.858 23.3977C141.642 23.8863 141.534 24.4602 141.534 25.1193C141.534 25.7935 141.64 26.3806 141.852 26.8806C142.068 27.3806 142.371 27.7689 142.761 28.0454C143.155 28.3219 143.617 28.4602 144.148 28.4602C144.496 28.4602 144.812 28.3996 145.097 28.2784C145.381 28.1572 145.621 27.9829 145.818 27.7556C146.015 27.5284 146.155 27.2556 146.239 26.9375H147.58C147.504 27.4526 147.316 27.9166 147.017 28.3295C146.722 28.7386 146.33 29.0643 145.841 29.3068C145.356 29.5454 144.792 29.6647 144.148 29.6647ZM153.335 20.7556V21.892H148.812V20.7556H153.335ZM150.131 18.6647H151.472V26.9829C151.472 27.3617 151.527 27.6458 151.636 27.8352C151.75 28.0208 151.894 28.1458 152.068 28.2102C152.246 28.2708 152.434 28.3011 152.631 28.3011C152.778 28.3011 152.9 28.2935 152.994 28.2784C153.089 28.2594 153.165 28.2443 153.222 28.2329L153.494 29.4375C153.403 29.4715 153.277 29.5056 153.114 29.5397C152.951 29.5776 152.744 29.5965 152.494 29.5965C152.116 29.5965 151.744 29.5151 151.381 29.3522C151.021 29.1893 150.722 28.9412 150.483 28.6079C150.248 28.2746 150.131 27.8541 150.131 27.3465V18.6647ZM161.378 22.7102L160.173 23.0511C160.098 22.8503 159.986 22.6553 159.838 22.4659C159.694 22.2727 159.497 22.1136 159.247 21.9886C158.997 21.8636 158.677 21.8011 158.287 21.8011C157.753 21.8011 157.308 21.9242 156.952 22.1704C156.599 22.4128 156.423 22.7215 156.423 23.0965C156.423 23.4299 156.545 23.6931 156.787 23.8863C157.029 24.0795 157.408 24.2405 157.923 24.3693L159.219 24.6875C159.999 24.8768 160.58 25.1666 160.963 25.5568C161.346 25.9431 161.537 26.4412 161.537 27.0511C161.537 27.5511 161.393 27.9981 161.105 28.392C160.821 28.7859 160.423 29.0965 159.912 29.3238C159.401 29.5511 158.806 29.6647 158.128 29.6647C157.238 29.6647 156.501 29.4715 155.918 29.0852C155.334 28.6988 154.965 28.1344 154.81 27.392L156.082 27.0738C156.204 27.5435 156.433 27.8958 156.77 28.1306C157.111 28.3655 157.556 28.4829 158.105 28.4829C158.73 28.4829 159.226 28.3503 159.594 28.0852C159.965 27.8162 160.151 27.4943 160.151 27.1193C160.151 26.8162 160.045 26.5625 159.832 26.3579C159.62 26.1496 159.295 25.9943 158.855 25.892L157.401 25.5511C156.601 25.3617 156.014 25.0681 155.639 24.6704C155.268 24.2689 155.082 23.767 155.082 23.1647C155.082 22.6723 155.221 22.2367 155.497 21.8579C155.777 21.4791 156.158 21.1818 156.639 20.9659C157.124 20.75 157.673 20.642 158.287 20.642C159.151 20.642 159.829 20.8314 160.321 21.2102C160.817 21.589 161.17 22.089 161.378 22.7102Z" fill="#CDCDCD"/>
</svg>
