<svg width="104" height="76" viewBox="0 0 104 76" fill="none" xmlns="http://www.w3.org/2000/svg">
<rect width="104" height="76" rx="16" fill="#091931"/>
<path d="M13.3672 43.5V33.5059H14.5293V42.4609H18.9658V43.5H13.3672ZM23.3955 35.8711C24.0335 35.8711 24.5804 36.0124 25.0361 36.2949C25.4919 36.5775 25.8405 36.974 26.082 37.4844C26.3236 37.9902 26.4443 38.5827 26.4443 39.2617V39.9658H21.2695C21.2832 40.8454 21.502 41.5153 21.9258 41.9756C22.3496 42.4359 22.9466 42.666 23.7168 42.666C24.1908 42.666 24.61 42.6227 24.9746 42.5361C25.3392 42.4495 25.7174 42.3219 26.1094 42.1533V43.1514C25.7311 43.32 25.3551 43.443 24.9814 43.5205C24.6123 43.598 24.1748 43.6367 23.6689 43.6367C22.9489 43.6367 22.32 43.4909 21.7822 43.1992C21.249 42.903 20.8343 42.4701 20.5381 41.9004C20.2419 41.3307 20.0938 40.6335 20.0938 39.8086C20.0938 39.002 20.2282 38.3047 20.4971 37.7168C20.7705 37.1243 21.1533 36.6686 21.6455 36.3496C22.1423 36.0306 22.7256 35.8711 23.3955 35.8711ZM23.3818 36.8008C22.7757 36.8008 22.2926 36.999 21.9326 37.3955C21.5726 37.792 21.3584 38.3457 21.29 39.0566H25.2549C25.2503 38.61 25.1797 38.2181 25.043 37.8809C24.9108 37.5391 24.708 37.2747 24.4346 37.0879C24.1611 36.8965 23.8102 36.8008 23.3818 36.8008ZM30.4639 46.8633C29.4795 46.8633 28.7207 46.6787 28.1875 46.3096C27.6543 45.945 27.3877 45.4323 27.3877 44.7715C27.3877 44.3021 27.5358 43.901 27.832 43.5684C28.1328 43.2357 28.5475 43.0146 29.0762 42.9053C28.8802 42.8141 28.7116 42.6774 28.5703 42.4951C28.4336 42.3128 28.3652 42.1032 28.3652 41.8662C28.3652 41.5928 28.4404 41.3535 28.5908 41.1484C28.7458 40.9388 28.9805 40.7383 29.2949 40.5469C28.903 40.3874 28.584 40.1185 28.3379 39.7402C28.0964 39.3574 27.9756 38.9131 27.9756 38.4072C27.9756 37.8695 28.0872 37.4115 28.3105 37.0332C28.5339 36.6504 28.8574 36.3587 29.2812 36.1582C29.7051 35.9577 30.2178 35.8574 30.8193 35.8574C30.9515 35.8574 31.0837 35.8643 31.2158 35.8779C31.3525 35.887 31.4824 35.903 31.6055 35.9258C31.7285 35.944 31.8356 35.9668 31.9268 35.9941H34.4971V36.7256L33.1162 36.8965C33.2529 37.0742 33.3669 37.2884 33.458 37.5391C33.5492 37.7897 33.5947 38.0677 33.5947 38.373C33.5947 39.1204 33.3418 39.7152 32.8359 40.1572C32.3301 40.5947 31.6351 40.8135 30.751 40.8135C30.5413 40.8135 30.3271 40.7952 30.1084 40.7588C29.8851 40.8818 29.7142 41.0186 29.5957 41.1689C29.4818 41.3193 29.4248 41.4925 29.4248 41.6885C29.4248 41.8343 29.4681 41.9505 29.5547 42.0371C29.6458 42.1237 29.7757 42.1875 29.9443 42.2285C30.113 42.265 30.3158 42.2832 30.5527 42.2832H31.8721C32.6878 42.2832 33.3122 42.4541 33.7451 42.7959C34.1826 43.1377 34.4014 43.6367 34.4014 44.293C34.4014 45.1224 34.0641 45.7581 33.3896 46.2002C32.7152 46.6423 31.7399 46.8633 30.4639 46.8633ZM30.498 45.9746C31.1178 45.9746 31.6305 45.9108 32.0361 45.7832C32.4463 45.6602 32.7516 45.4801 32.9521 45.2432C33.1572 45.0107 33.2598 44.7327 33.2598 44.4092C33.2598 44.1084 33.1914 43.8805 33.0547 43.7256C32.918 43.5752 32.7174 43.4749 32.4531 43.4248C32.1888 43.3701 31.8652 43.3428 31.4824 43.3428H30.1836C29.8464 43.3428 29.5524 43.3952 29.3018 43.5C29.0511 43.6048 28.8574 43.7598 28.7207 43.9648C28.5885 44.1699 28.5225 44.4251 28.5225 44.7305C28.5225 45.1361 28.6934 45.4437 29.0352 45.6533C29.377 45.8675 29.8646 45.9746 30.498 45.9746ZM30.792 39.9863C31.3343 39.9863 31.7422 39.8496 32.0156 39.5762C32.2891 39.3027 32.4258 38.904 32.4258 38.3799C32.4258 37.8193 32.2868 37.4001 32.0088 37.1221C31.7308 36.8395 31.3206 36.6982 30.7783 36.6982C30.2588 36.6982 29.8577 36.8441 29.5752 37.1357C29.2972 37.4229 29.1582 37.8444 29.1582 38.4004C29.1582 38.9108 29.2995 39.3027 29.582 39.5762C29.8646 39.8496 30.2679 39.9863 30.792 39.9863ZM38.7764 35.8848C39.6696 35.8848 40.3327 36.0853 40.7656 36.4863C41.1986 36.8874 41.415 37.5277 41.415 38.4072V43.5H40.5879L40.3691 42.3926H40.3145C40.1048 42.666 39.8861 42.8962 39.6582 43.083C39.4303 43.2653 39.166 43.4043 38.8652 43.5C38.569 43.5911 38.2044 43.6367 37.7715 43.6367C37.3158 43.6367 36.9102 43.557 36.5547 43.3975C36.2038 43.238 35.9258 42.9964 35.7207 42.6729C35.5202 42.3493 35.4199 41.9391 35.4199 41.4424C35.4199 40.695 35.7161 40.1208 36.3086 39.7197C36.901 39.3187 37.8034 39.0999 39.0156 39.0635L40.3076 39.0088V38.5508C40.3076 37.9036 40.1686 37.4502 39.8906 37.1904C39.6126 36.9307 39.2207 36.8008 38.7148 36.8008C38.3229 36.8008 37.9492 36.8577 37.5938 36.9717C37.2383 37.0856 36.901 37.2201 36.582 37.375L36.2334 36.5137C36.5706 36.3405 36.958 36.1924 37.3955 36.0693C37.833 35.9463 38.2933 35.8848 38.7764 35.8848ZM40.2939 39.8086L39.1523 39.8564C38.2181 39.8929 37.5596 40.0456 37.1768 40.3145C36.7939 40.5833 36.6025 40.9639 36.6025 41.4561C36.6025 41.8844 36.7324 42.2012 36.9922 42.4062C37.252 42.6113 37.596 42.7139 38.0244 42.7139C38.6898 42.7139 39.2344 42.5293 39.6582 42.1602C40.082 41.791 40.2939 41.2373 40.2939 40.499V39.8086ZM44.8945 43.5H43.7529V32.8633H44.8945V43.5ZM58.915 43.5H57.5752L52.127 35.1055H52.0723C52.0859 35.3288 52.1019 35.584 52.1201 35.8711C52.1383 36.1536 52.152 36.4567 52.1611 36.7803C52.1748 37.0993 52.1816 37.4251 52.1816 37.7578V43.5H51.1016V33.5059H52.4346L57.8623 41.873H57.9102C57.901 41.7135 57.8896 41.488 57.876 41.1963C57.8623 40.9001 57.8486 40.5833 57.835 40.2461C57.8258 39.9043 57.8213 39.5876 57.8213 39.2959V33.5059H58.915V43.5ZM67.9316 39.7402C67.9316 40.3555 67.8519 40.9046 67.6924 41.3877C67.5329 41.8708 67.3027 42.2786 67.002 42.6113C66.7012 42.944 66.3366 43.1992 65.9082 43.377C65.4844 43.5501 65.0036 43.6367 64.4658 43.6367C63.9645 43.6367 63.5042 43.5501 63.085 43.377C62.6702 43.1992 62.3102 42.944 62.0049 42.6113C61.7041 42.2786 61.4694 41.8708 61.3008 41.3877C61.1367 40.9046 61.0547 40.3555 61.0547 39.7402C61.0547 38.9199 61.1937 38.2227 61.4717 37.6484C61.7497 37.0697 62.1462 36.6299 62.6611 36.3291C63.1807 36.0238 63.7982 35.8711 64.5137 35.8711C65.1973 35.8711 65.7943 36.0238 66.3047 36.3291C66.8197 36.6344 67.2184 37.0765 67.501 37.6553C67.7881 38.2295 67.9316 38.9245 67.9316 39.7402ZM62.2305 39.7402C62.2305 40.3418 62.3102 40.8636 62.4697 41.3057C62.6292 41.7477 62.8753 42.0895 63.208 42.3311C63.5407 42.5726 63.9691 42.6934 64.4932 42.6934C65.0127 42.6934 65.4388 42.5726 65.7715 42.3311C66.1087 42.0895 66.3571 41.7477 66.5166 41.3057C66.6761 40.8636 66.7559 40.3418 66.7559 39.7402C66.7559 39.1432 66.6761 38.6283 66.5166 38.1953C66.3571 37.7578 66.111 37.4206 65.7783 37.1836C65.4456 36.9466 65.015 36.8281 64.4863 36.8281C63.707 36.8281 63.1351 37.0856 62.7705 37.6006C62.4105 38.1156 62.2305 38.8288 62.2305 39.7402ZM72.3135 42.707C72.5003 42.707 72.6917 42.6911 72.8877 42.6592C73.0837 42.6273 73.2432 42.5885 73.3662 42.543V43.4248C73.234 43.484 73.0495 43.5342 72.8125 43.5752C72.5801 43.6162 72.3522 43.6367 72.1289 43.6367C71.7324 43.6367 71.3724 43.5684 71.0488 43.4316C70.7253 43.2904 70.4655 43.0534 70.2695 42.7207C70.0781 42.388 69.9824 41.9277 69.9824 41.3398V36.8965H68.916V36.3428L69.9893 35.8984L70.4404 34.2715H71.124V36.0078H73.3184V36.8965H71.124V41.3057C71.124 41.7751 71.2311 42.126 71.4453 42.3584C71.6641 42.5908 71.9535 42.707 72.3135 42.707ZM76.0186 36.0078V43.5H74.8838V36.0078H76.0186ZM75.4648 33.2051C75.6517 33.2051 75.8112 33.2666 75.9434 33.3896C76.0801 33.5081 76.1484 33.695 76.1484 33.9502C76.1484 34.2008 76.0801 34.3877 75.9434 34.5107C75.8112 34.6338 75.6517 34.6953 75.4648 34.6953C75.2689 34.6953 75.1048 34.6338 74.9727 34.5107C74.8451 34.3877 74.7812 34.2008 74.7812 33.9502C74.7812 33.695 74.8451 33.5081 74.9727 33.3896C75.1048 33.2666 75.2689 33.2051 75.4648 33.2051ZM81.4258 43.6367C80.7513 43.6367 80.1566 43.4977 79.6416 43.2197C79.1266 42.9417 78.7256 42.5179 78.4385 41.9482C78.1514 41.3786 78.0078 40.6608 78.0078 39.7949C78.0078 38.888 78.1582 38.1475 78.459 37.5732C78.7643 36.9945 79.1836 36.5661 79.7168 36.2881C80.25 36.0101 80.8561 35.8711 81.5352 35.8711C81.9089 35.8711 82.2689 35.9098 82.6152 35.9873C82.9661 36.0602 83.2533 36.1536 83.4766 36.2676L83.1348 37.2178C82.9069 37.1266 82.6426 37.0446 82.3418 36.9717C82.0456 36.8988 81.7676 36.8623 81.5078 36.8623C80.9883 36.8623 80.5553 36.974 80.209 37.1973C79.8672 37.4206 79.6097 37.7487 79.4365 38.1816C79.2679 38.6146 79.1836 39.1478 79.1836 39.7812C79.1836 40.3874 79.2656 40.9046 79.4297 41.333C79.5983 41.7614 79.8467 42.0895 80.1748 42.3174C80.5075 42.5407 80.9222 42.6523 81.4189 42.6523C81.8154 42.6523 82.1732 42.6113 82.4922 42.5293C82.8112 42.4427 83.1006 42.3424 83.3604 42.2285V43.2402C83.1097 43.3678 82.8294 43.4658 82.5195 43.5342C82.2142 43.6025 81.8496 43.6367 81.4258 43.6367ZM88.0225 35.8711C88.6605 35.8711 89.2074 36.0124 89.6631 36.2949C90.1188 36.5775 90.4674 36.974 90.709 37.4844C90.9505 37.9902 91.0713 38.5827 91.0713 39.2617V39.9658H85.8965C85.9102 40.8454 86.1289 41.5153 86.5527 41.9756C86.9766 42.4359 87.5736 42.666 88.3438 42.666C88.8177 42.666 89.237 42.6227 89.6016 42.5361C89.9661 42.4495 90.3444 42.3219 90.7363 42.1533V43.1514C90.3581 43.32 89.9821 43.443 89.6084 43.5205C89.2393 43.598 88.8018 43.6367 88.2959 43.6367C87.5758 43.6367 86.9469 43.4909 86.4092 43.1992C85.876 42.903 85.4613 42.4701 85.165 41.9004C84.8688 41.3307 84.7207 40.6335 84.7207 39.8086C84.7207 39.002 84.8551 38.3047 85.124 37.7168C85.3975 37.1243 85.7803 36.6686 86.2725 36.3496C86.7692 36.0306 87.3525 35.8711 88.0225 35.8711ZM88.0088 36.8008C87.4027 36.8008 86.9196 36.999 86.5596 37.3955C86.1995 37.792 85.9854 38.3457 85.917 39.0566H89.8818C89.8773 38.61 89.8066 38.2181 89.6699 37.8809C89.5378 37.5391 89.335 37.2747 89.0615 37.0879C88.7881 36.8965 88.4372 36.8008 88.0088 36.8008Z" fill="white"/>
</svg>
