<svg width="113" height="76" viewBox="0 0 113 76" fill="none" xmlns="http://www.w3.org/2000/svg">
<rect x="0.333008" width="112" height="76" rx="16" fill="#091931"/>
<path d="M16.3115 33.5059C17.6012 33.5059 18.5423 33.7588 19.1348 34.2646C19.7318 34.766 20.0303 35.486 20.0303 36.4248C20.0303 36.8486 19.9596 37.252 19.8184 37.6348C19.6816 38.013 19.4583 38.348 19.1484 38.6396C18.8385 38.9268 18.4307 39.1546 17.9248 39.3232C17.4235 39.4873 16.8083 39.5693 16.0791 39.5693H14.8623V43.5H13.7002V33.5059H16.3115ZM16.2021 34.4971H14.8623V38.5713H15.9492C16.5872 38.5713 17.1182 38.5029 17.542 38.3662C17.9704 38.2295 18.2917 38.0085 18.5059 37.7031C18.7201 37.3932 18.8271 36.9831 18.8271 36.4727C18.8271 35.8073 18.6152 35.3128 18.1914 34.9893C17.7676 34.6611 17.1045 34.4971 16.2021 34.4971ZM25.3555 35.8711C25.5059 35.8711 25.6631 35.8802 25.8271 35.8984C25.9912 35.9121 26.137 35.9326 26.2646 35.96L26.1211 37.0127C25.998 36.9808 25.8613 36.9557 25.7109 36.9375C25.5605 36.9193 25.4193 36.9102 25.2871 36.9102C24.9863 36.9102 24.7015 36.9717 24.4326 37.0947C24.1683 37.2132 23.9359 37.3864 23.7354 37.6143C23.5348 37.8376 23.3776 38.1087 23.2637 38.4277C23.1497 38.7422 23.0928 39.0931 23.0928 39.4805V43.5H21.9512V36.0078H22.8945L23.0176 37.3887H23.0654C23.2204 37.1107 23.4072 36.8577 23.626 36.6299C23.8447 36.3975 24.0977 36.2129 24.3848 36.0762C24.6764 35.9395 25 35.8711 25.3555 35.8711ZM28.8145 36.0078V43.5H27.6797V36.0078H28.8145ZM28.2607 33.2051C28.4476 33.2051 28.6071 33.2666 28.7393 33.3896C28.876 33.5081 28.9443 33.695 28.9443 33.9502C28.9443 34.2008 28.876 34.3877 28.7393 34.5107C28.6071 34.6338 28.4476 34.6953 28.2607 34.6953C28.0648 34.6953 27.9007 34.6338 27.7686 34.5107C27.641 34.3877 27.5771 34.2008 27.5771 33.9502C27.5771 33.695 27.641 33.5081 27.7686 33.3896C27.9007 33.2666 28.0648 33.2051 28.2607 33.2051ZM32.8682 43.5L30.0244 36.0078H31.2412L32.8887 40.54C33.0026 40.8499 33.1188 41.1917 33.2373 41.5654C33.3558 41.9391 33.4378 42.2399 33.4834 42.4678H33.5312C33.5859 42.2399 33.6771 41.9391 33.8047 41.5654C33.9323 41.1872 34.0485 40.8454 34.1533 40.54L35.8008 36.0078H37.0176L34.167 43.5H32.8682ZM41.0234 35.8848C41.9167 35.8848 42.5798 36.0853 43.0127 36.4863C43.4456 36.8874 43.6621 37.5277 43.6621 38.4072V43.5H42.835L42.6162 42.3926H42.5615C42.3519 42.666 42.1331 42.8962 41.9053 43.083C41.6774 43.2653 41.4131 43.4043 41.1123 43.5C40.8161 43.5911 40.4515 43.6367 40.0186 43.6367C39.5628 43.6367 39.1572 43.557 38.8018 43.3975C38.4508 43.238 38.1729 42.9964 37.9678 42.6729C37.7673 42.3493 37.667 41.9391 37.667 41.4424C37.667 40.695 37.9632 40.1208 38.5557 39.7197C39.1481 39.3187 40.0505 39.0999 41.2627 39.0635L42.5547 39.0088V38.5508C42.5547 37.9036 42.4157 37.4502 42.1377 37.1904C41.8597 36.9307 41.4678 36.8008 40.9619 36.8008C40.57 36.8008 40.1963 36.8577 39.8408 36.9717C39.4854 37.0856 39.1481 37.2201 38.8291 37.375L38.4805 36.5137C38.8177 36.3405 39.2051 36.1924 39.6426 36.0693C40.0801 35.9463 40.5404 35.8848 41.0234 35.8848ZM42.541 39.8086L41.3994 39.8564C40.4652 39.8929 39.8066 40.0456 39.4238 40.3145C39.041 40.5833 38.8496 40.9639 38.8496 41.4561C38.8496 41.8844 38.9795 42.2012 39.2393 42.4062C39.499 42.6113 39.8431 42.7139 40.2715 42.7139C40.9368 42.7139 41.4814 42.5293 41.9053 42.1602C42.3291 41.791 42.541 41.2373 42.541 40.499V39.8086ZM49.001 43.6367C48.3265 43.6367 47.7318 43.4977 47.2168 43.2197C46.7018 42.9417 46.3008 42.5179 46.0137 41.9482C45.7266 41.3786 45.583 40.6608 45.583 39.7949C45.583 38.888 45.7334 38.1475 46.0342 37.5732C46.3395 36.9945 46.7588 36.5661 47.292 36.2881C47.8252 36.0101 48.4313 35.8711 49.1104 35.8711C49.484 35.8711 49.8441 35.9098 50.1904 35.9873C50.5413 36.0602 50.8285 36.1536 51.0518 36.2676L50.71 37.2178C50.4821 37.1266 50.2178 37.0446 49.917 36.9717C49.6208 36.8988 49.3428 36.8623 49.083 36.8623C48.5635 36.8623 48.1305 36.974 47.7842 37.1973C47.4424 37.4206 47.1849 37.7487 47.0117 38.1816C46.8431 38.6146 46.7588 39.1478 46.7588 39.7812C46.7588 40.3874 46.8408 40.9046 47.0049 41.333C47.1735 41.7614 47.4219 42.0895 47.75 42.3174C48.0827 42.5407 48.4974 42.6523 48.9941 42.6523C49.3906 42.6523 49.7484 42.6113 50.0674 42.5293C50.3864 42.4427 50.6758 42.3424 50.9355 42.2285V43.2402C50.6849 43.3678 50.4046 43.4658 50.0947 43.5342C49.7894 43.6025 49.4248 43.6367 49.001 43.6367ZM51.5303 36.0078H52.7471L54.4014 40.3555C54.4971 40.6107 54.5859 40.8568 54.668 41.0938C54.75 41.3262 54.8229 41.5495 54.8867 41.7637C54.9505 41.9779 55.0007 42.1852 55.0371 42.3857H55.085C55.1488 42.1579 55.2399 41.8594 55.3584 41.4902C55.4769 41.1165 55.6045 40.736 55.7412 40.3486L57.3066 36.0078H58.5303L55.2695 44.6006C55.0964 45.0609 54.8936 45.4619 54.6611 45.8037C54.4333 46.1455 54.1553 46.4076 53.8271 46.5898C53.499 46.7767 53.1025 46.8701 52.6377 46.8701C52.4235 46.8701 52.2344 46.8564 52.0703 46.8291C51.9062 46.8063 51.765 46.779 51.6465 46.7471V45.8379C51.7467 45.8607 51.8675 45.8812 52.0088 45.8994C52.1546 45.9176 52.305 45.9268 52.46 45.9268C52.7425 45.9268 52.9863 45.8721 53.1914 45.7627C53.401 45.6579 53.5811 45.5029 53.7314 45.2979C53.8818 45.0928 54.0117 44.849 54.1211 44.5664L54.5312 43.5137L51.5303 36.0078ZM66.1455 33.5059C67.4352 33.5059 68.3763 33.7588 68.9688 34.2646C69.5658 34.766 69.8643 35.486 69.8643 36.4248C69.8643 36.8486 69.7936 37.252 69.6523 37.6348C69.5156 38.013 69.2923 38.348 68.9824 38.6396C68.6725 38.9268 68.2646 39.1546 67.7588 39.3232C67.2575 39.4873 66.6423 39.5693 65.9131 39.5693H64.6963V43.5H63.5342V33.5059H66.1455ZM66.0361 34.4971H64.6963V38.5713H65.7832C66.4212 38.5713 66.9521 38.5029 67.376 38.3662C67.8044 38.2295 68.1257 38.0085 68.3398 37.7031C68.554 37.3932 68.6611 36.9831 68.6611 36.4727C68.6611 35.8073 68.4492 35.3128 68.0254 34.9893C67.6016 34.6611 66.9385 34.4971 66.0361 34.4971ZM78.2451 39.7402C78.2451 40.3555 78.1654 40.9046 78.0059 41.3877C77.8464 41.8708 77.6162 42.2786 77.3154 42.6113C77.0146 42.944 76.6501 43.1992 76.2217 43.377C75.7979 43.5501 75.3171 43.6367 74.7793 43.6367C74.278 43.6367 73.8177 43.5501 73.3984 43.377C72.9837 43.1992 72.6237 42.944 72.3184 42.6113C72.0176 42.2786 71.7829 41.8708 71.6143 41.3877C71.4502 40.9046 71.3682 40.3555 71.3682 39.7402C71.3682 38.9199 71.5072 38.2227 71.7852 37.6484C72.0632 37.0697 72.4596 36.6299 72.9746 36.3291C73.4941 36.0238 74.1117 35.8711 74.8271 35.8711C75.5107 35.8711 76.1077 36.0238 76.6182 36.3291C77.1331 36.6344 77.5319 37.0765 77.8145 37.6553C78.1016 38.2295 78.2451 38.9245 78.2451 39.7402ZM72.5439 39.7402C72.5439 40.3418 72.6237 40.8636 72.7832 41.3057C72.9427 41.7477 73.1888 42.0895 73.5215 42.3311C73.8542 42.5726 74.2826 42.6934 74.8066 42.6934C75.3262 42.6934 75.7523 42.5726 76.085 42.3311C76.4222 42.0895 76.6706 41.7477 76.8301 41.3057C76.9896 40.8636 77.0693 40.3418 77.0693 39.7402C77.0693 39.1432 76.9896 38.6283 76.8301 38.1953C76.6706 37.7578 76.4245 37.4206 76.0918 37.1836C75.7591 36.9466 75.3285 36.8281 74.7998 36.8281C74.0205 36.8281 73.4486 37.0856 73.084 37.6006C72.724 38.1156 72.5439 38.8288 72.5439 39.7402ZM81.3486 43.5H80.207V32.8633H81.3486V43.5ZM84.8828 36.0078V43.5H83.748V36.0078H84.8828ZM84.3291 33.2051C84.516 33.2051 84.6755 33.2666 84.8076 33.3896C84.9443 33.5081 85.0127 33.695 85.0127 33.9502C85.0127 34.2008 84.9443 34.3877 84.8076 34.5107C84.6755 34.6338 84.516 34.6953 84.3291 34.6953C84.1331 34.6953 83.9691 34.6338 83.8369 34.5107C83.7093 34.3877 83.6455 34.2008 83.6455 33.9502C83.6455 33.695 83.7093 33.5081 83.8369 33.3896C83.9691 33.2666 84.1331 33.2051 84.3291 33.2051ZM90.29 43.6367C89.6156 43.6367 89.0208 43.4977 88.5059 43.2197C87.9909 42.9417 87.5898 42.5179 87.3027 41.9482C87.0156 41.3786 86.8721 40.6608 86.8721 39.7949C86.8721 38.888 87.0225 38.1475 87.3232 37.5732C87.6286 36.9945 88.0479 36.5661 88.5811 36.2881C89.1143 36.0101 89.7204 35.8711 90.3994 35.8711C90.7731 35.8711 91.1331 35.9098 91.4795 35.9873C91.8304 36.0602 92.1175 36.1536 92.3408 36.2676L91.999 37.2178C91.7712 37.1266 91.5068 37.0446 91.2061 36.9717C90.9098 36.8988 90.6318 36.8623 90.3721 36.8623C89.8525 36.8623 89.4196 36.974 89.0732 37.1973C88.7314 37.4206 88.474 37.7487 88.3008 38.1816C88.1322 38.6146 88.0479 39.1478 88.0479 39.7812C88.0479 40.3874 88.1299 40.9046 88.2939 41.333C88.4626 41.7614 88.7109 42.0895 89.0391 42.3174C89.3717 42.5407 89.7865 42.6523 90.2832 42.6523C90.6797 42.6523 91.0374 42.6113 91.3564 42.5293C91.6755 42.4427 91.9648 42.3424 92.2246 42.2285V43.2402C91.974 43.3678 91.6937 43.4658 91.3838 43.5342C91.0785 43.6025 90.7139 43.6367 90.29 43.6367ZM92.8193 36.0078H94.0361L95.6904 40.3555C95.7861 40.6107 95.875 40.8568 95.957 41.0938C96.0391 41.3262 96.112 41.5495 96.1758 41.7637C96.2396 41.9779 96.2897 42.1852 96.3262 42.3857H96.374C96.4378 42.1579 96.529 41.8594 96.6475 41.4902C96.766 41.1165 96.8936 40.736 97.0303 40.3486L98.5957 36.0078H99.8193L96.5586 44.6006C96.3854 45.0609 96.1826 45.4619 95.9502 45.8037C95.7223 46.1455 95.4443 46.4076 95.1162 46.5898C94.7881 46.7767 94.3916 46.8701 93.9268 46.8701C93.7126 46.8701 93.5234 46.8564 93.3594 46.8291C93.1953 46.8063 93.054 46.779 92.9355 46.7471V45.8379C93.0358 45.8607 93.1566 45.8812 93.2979 45.8994C93.4437 45.9176 93.5941 45.9268 93.749 45.9268C94.0316 45.9268 94.2754 45.8721 94.4805 45.7627C94.6901 45.6579 94.8701 45.5029 95.0205 45.2979C95.1709 45.0928 95.3008 44.849 95.4102 44.5664L95.8203 43.5137L92.8193 36.0078Z" fill="white"/>
</svg>
