<svg width="81" height="76" viewBox="0 0 81 76" fill="none" xmlns="http://www.w3.org/2000/svg">
<rect x="0.333008" width="80" height="76" rx="16" fill="#091931"/>
<path d="M46.7945 19.1923L46.7945 35.8077C46.7941 36.2972 46.5994 36.7665 46.2533 37.1126C45.9072 37.4587 45.4379 37.6534 44.9484 37.6539L41.2561 37.6539C40.7666 37.6534 40.2973 37.4587 39.9512 37.1126C39.6051 36.7665 39.4104 36.2972 39.4099 35.8077L39.4099 19.1923C39.4104 18.7028 39.6051 18.2335 39.9512 17.8874C40.2973 17.5413 40.7666 17.3467 41.2561 17.3462L44.9484 17.3462C45.4379 17.3467 45.9072 17.5413 46.2533 17.8874C46.5994 18.2335 46.7941 18.7028 46.7945 19.1923ZM41.2561 35.8077L44.9484 35.8077L44.9484 19.1923L41.2561 19.1923L41.2561 35.8077ZM41.2561 19.1923L41.2561 35.8077C41.2556 36.2972 41.0609 36.7665 40.7148 37.1126C40.3687 37.4587 39.8994 37.6533 39.4099 37.6538L35.7176 37.6538C35.2281 37.6533 34.7589 37.4587 34.4127 37.1126C34.0666 36.7665 33.872 36.2972 33.8715 35.8077L33.8715 19.1923C33.872 18.7028 34.0666 18.2335 34.4127 17.8874C34.7588 17.5413 35.2281 17.3466 35.7176 17.3461L39.4099 17.3461C39.8994 17.3466 40.3687 17.5413 40.7148 17.8874C41.0609 18.2335 41.2556 18.7028 41.2561 19.1923ZM35.7176 35.8077L39.4099 35.8077L39.4099 19.1923L35.7176 19.1923L35.7176 35.8077ZM35.7176 19.1923L35.7176 35.8077C35.7171 36.2972 35.5225 36.7665 35.1764 37.1126C34.8302 37.4587 34.3609 37.6533 33.8715 37.6538L30.1792 37.6538C29.6897 37.6533 29.2204 37.4587 28.8743 37.1126C28.5282 36.7665 28.3335 36.2972 28.333 35.8077L28.333 19.1923C28.3335 18.7028 28.5282 18.2335 28.8743 17.8874C29.2204 17.5413 29.6897 17.3466 30.1792 17.3461L33.8715 17.3461C34.3609 17.3466 34.8302 17.5413 35.1764 17.8874C35.5225 18.2335 35.7171 18.7028 35.7176 19.1923ZM30.1792 35.8077L33.8715 35.8077L33.8715 19.1923L30.1792 19.1923L30.1792 35.8077Z" fill="white"/>
<path d="M52.333 19.1925L52.333 35.8079C52.3325 36.2974 52.1379 36.7667 51.7917 37.1128C51.4456 37.4589 50.9763 37.6536 50.4869 37.6541L46.7945 37.6541C46.3051 37.6536 45.8358 37.4589 45.4897 37.1128C45.1435 36.7667 44.9489 36.2972 44.9484 35.8077L44.9484 19.1923C44.9489 18.7028 45.1435 18.2337 45.4897 17.8876C45.8358 17.5415 46.3051 17.3469 46.7945 17.3464L50.4869 17.3464C50.9763 17.3469 51.4456 17.5415 51.7917 17.8876C52.1379 18.2337 52.3325 18.703 52.333 19.1925ZM46.7945 35.8077L50.4869 35.8079L50.4869 19.1925L46.7945 19.1923L46.7945 35.8077Z" fill="white"/>
<path d="M21.7002 47.5059H24.5303C25.779 47.5059 26.7178 47.6927 27.3467 48.0664C27.9756 48.4401 28.29 49.0758 28.29 49.9736C28.29 50.361 28.2148 50.7096 28.0645 51.0195C27.9186 51.3249 27.7044 51.5778 27.4219 51.7783C27.1393 51.9788 26.7907 52.1178 26.376 52.1953V52.2637C26.8135 52.332 27.2008 52.4574 27.5381 52.6396C27.8753 52.8219 28.1396 53.0771 28.3311 53.4053C28.5225 53.7334 28.6182 54.1504 28.6182 54.6562C28.6182 55.2715 28.4746 55.791 28.1875 56.2148C27.9049 56.6387 27.5039 56.96 26.9844 57.1787C26.4648 57.3929 25.8496 57.5 25.1387 57.5H21.7002V47.5059ZM22.8623 51.792H24.7764C25.6468 51.792 26.2484 51.6484 26.5811 51.3613C26.9183 51.0742 27.0869 50.6549 27.0869 50.1035C27.0869 49.5339 26.8864 49.1237 26.4854 48.873C26.0889 48.6224 25.4554 48.4971 24.585 48.4971H22.8623V51.792ZM22.8623 52.7695V56.5088H24.9404C25.8291 56.5088 26.458 56.3356 26.8271 55.9893C27.1963 55.6383 27.3809 55.1667 27.3809 54.5742C27.3809 54.196 27.2965 53.8724 27.1279 53.6035C26.9639 53.3346 26.695 53.1296 26.3213 52.9883C25.9521 52.8424 25.4577 52.7695 24.8379 52.7695H22.8623ZM37.04 53.7402C37.04 54.3555 36.9603 54.9046 36.8008 55.3877C36.6413 55.8708 36.4111 56.2786 36.1104 56.6113C35.8096 56.944 35.445 57.1992 35.0166 57.377C34.5928 57.5501 34.112 57.6367 33.5742 57.6367C33.0729 57.6367 32.6126 57.5501 32.1934 57.377C31.7786 57.1992 31.4186 56.944 31.1133 56.6113C30.8125 56.2786 30.5778 55.8708 30.4092 55.3877C30.2451 54.9046 30.1631 54.3555 30.1631 53.7402C30.1631 52.9199 30.3021 52.2227 30.5801 51.6484C30.8581 51.0697 31.2546 50.6299 31.7695 50.3291C32.2891 50.0238 32.9066 49.8711 33.6221 49.8711C34.3057 49.8711 34.9027 50.0238 35.4131 50.3291C35.9281 50.6344 36.3268 51.0765 36.6094 51.6553C36.8965 52.2295 37.04 52.9245 37.04 53.7402ZM31.3389 53.7402C31.3389 54.3418 31.4186 54.8636 31.5781 55.3057C31.7376 55.7477 31.9837 56.0895 32.3164 56.3311C32.6491 56.5726 33.0775 56.6934 33.6016 56.6934C34.1211 56.6934 34.5472 56.5726 34.8799 56.3311C35.2171 56.0895 35.4655 55.7477 35.625 55.3057C35.7845 54.8636 35.8643 54.3418 35.8643 53.7402C35.8643 53.1432 35.7845 52.6283 35.625 52.1953C35.4655 51.7578 35.2194 51.4206 34.8867 51.1836C34.554 50.9466 34.1234 50.8281 33.5947 50.8281C32.8154 50.8281 32.2435 51.0856 31.8789 51.6006C31.5189 52.1156 31.3389 52.8288 31.3389 53.7402ZM41.8047 49.8848C42.6979 49.8848 43.361 50.0853 43.7939 50.4863C44.2269 50.8874 44.4434 51.5277 44.4434 52.4072V57.5H43.6162L43.3975 56.3926H43.3428C43.1331 56.666 42.9144 56.8962 42.6865 57.083C42.4587 57.2653 42.1943 57.4043 41.8936 57.5C41.5973 57.5911 41.2327 57.6367 40.7998 57.6367C40.3441 57.6367 39.9385 57.557 39.583 57.3975C39.2321 57.238 38.9541 56.9964 38.749 56.6729C38.5485 56.3493 38.4482 55.9391 38.4482 55.4424C38.4482 54.695 38.7445 54.1208 39.3369 53.7197C39.9294 53.3187 40.8317 53.0999 42.0439 53.0635L43.3359 53.0088V52.5508C43.3359 51.9036 43.1969 51.4502 42.9189 51.1904C42.641 50.9307 42.249 50.8008 41.7432 50.8008C41.3512 50.8008 40.9775 50.8577 40.6221 50.9717C40.2666 51.0856 39.9294 51.2201 39.6104 51.375L39.2617 50.5137C39.599 50.3405 39.9863 50.1924 40.4238 50.0693C40.8613 49.9463 41.3216 49.8848 41.8047 49.8848ZM43.3223 53.8086L42.1807 53.8564C41.2464 53.8929 40.5879 54.0456 40.2051 54.3145C39.8223 54.5833 39.6309 54.9639 39.6309 55.4561C39.6309 55.8844 39.7607 56.2012 40.0205 56.4062C40.2803 56.6113 40.6243 56.7139 41.0527 56.7139C41.7181 56.7139 42.2627 56.5293 42.6865 56.1602C43.1104 55.791 43.3223 55.2373 43.3223 54.499V53.8086ZM50.1855 49.8711C50.3359 49.8711 50.4932 49.8802 50.6572 49.8984C50.8213 49.9121 50.9671 49.9326 51.0947 49.96L50.9512 51.0127C50.8281 50.9808 50.6914 50.9557 50.541 50.9375C50.3906 50.9193 50.2493 50.9102 50.1172 50.9102C49.8164 50.9102 49.5316 50.9717 49.2627 51.0947C48.9984 51.2132 48.766 51.3864 48.5654 51.6143C48.3649 51.8376 48.2077 52.1087 48.0938 52.4277C47.9798 52.7422 47.9229 53.0931 47.9229 53.4805V57.5H46.7812V50.0078H47.7246L47.8477 51.3887H47.8955C48.0505 51.1107 48.2373 50.8577 48.4561 50.6299C48.6748 50.3975 48.9277 50.2129 49.2148 50.0762C49.5065 49.9395 49.8301 49.8711 50.1855 49.8711ZM55.1758 57.6367C54.2279 57.6367 53.4759 57.3132 52.9199 56.666C52.3685 56.0189 52.0928 55.0573 52.0928 53.7812C52.0928 52.4915 52.3753 51.5186 52.9404 50.8623C53.5055 50.2015 54.2575 49.8711 55.1963 49.8711C55.5928 49.8711 55.9391 49.9235 56.2354 50.0283C56.5316 50.1331 56.7868 50.2744 57.001 50.4521C57.2152 50.6253 57.3952 50.8236 57.541 51.0469H57.623C57.6048 50.9056 57.5866 50.7119 57.5684 50.4658C57.5501 50.2197 57.541 50.0192 57.541 49.8643V46.8633H58.6758V57.5H57.7598L57.5889 56.4336H57.541C57.3997 56.6569 57.2197 56.8597 57.001 57.042C56.7868 57.2243 56.5293 57.3701 56.2285 57.4795C55.9323 57.5843 55.5814 57.6367 55.1758 57.6367ZM55.3535 56.6934C56.1556 56.6934 56.723 56.4655 57.0557 56.0098C57.3883 55.554 57.5547 54.8773 57.5547 53.9795V53.7744C57.5547 52.8219 57.3952 52.0905 57.0762 51.5801C56.7617 51.0697 56.1875 50.8145 55.3535 50.8145C54.6562 50.8145 54.1344 51.0833 53.7881 51.6211C53.4417 52.1543 53.2686 52.8835 53.2686 53.8086C53.2686 54.7292 53.4395 55.4401 53.7812 55.9414C54.1276 56.4427 54.6517 56.6934 55.3535 56.6934Z" fill="white"/>
</svg>
