<svg width="80" height="76" viewBox="0 0 80 76" fill="none" xmlns="http://www.w3.org/2000/svg">
<mask id="mask0_297742_4469" style="mask-type:alpha" maskUnits="userSpaceOnUse" x="28" y="15" width="24" height="25">
<rect x="28" y="15.5" width="24" height="24" fill="#D9D9D9"/>
</mask>
<g mask="url(#mask0_297742_4469)">
<path d="M40.0002 34.7C38.8802 34.7 37.8102 34.875 36.7902 35.225C35.7702 35.575 34.8402 36.1 34.0002 36.8V37.1H46.0002V36.8C45.1602 36.1 44.2302 35.575 43.2102 35.225C42.1902 34.875 41.1202 34.7 40.0002 34.7ZM31.6002 35.72C32.6802 34.66 33.9352 33.825 35.3652 33.215C36.7952 32.605 38.3402 32.3 40.0002 32.3C41.6602 32.3 43.2052 32.605 44.6352 33.215C46.0652 33.825 47.3202 34.66 48.4002 35.72V20.3H31.6002V35.72ZM40.0002 29.9C38.8402 29.9 37.8502 29.49 37.0302 28.67C36.2102 27.85 35.8002 26.86 35.8002 25.7C35.8002 24.54 36.2102 23.55 37.0302 22.73C37.8502 21.91 38.8402 21.5 40.0002 21.5C41.1602 21.5 42.1502 21.91 42.9702 22.73C43.7902 23.55 44.2002 24.54 44.2002 25.7C44.2002 26.86 43.7902 27.85 42.9702 28.67C42.1502 29.49 41.1602 29.9 40.0002 29.9ZM40.0002 27.5C40.5002 27.5 40.9252 27.325 41.2752 26.975C41.6252 26.625 41.8002 26.2 41.8002 25.7C41.8002 25.2 41.6252 24.775 41.2752 24.425C40.9252 24.075 40.5002 23.9 40.0002 23.9C39.5002 23.9 39.0752 24.075 38.7252 24.425C38.3752 24.775 38.2002 25.2 38.2002 25.7C38.2002 26.2 38.3752 26.625 38.7252 26.975C39.0752 27.325 39.5002 27.5 40.0002 27.5ZM31.6002 39.5C30.9402 39.5 30.3752 39.265 29.9052 38.795C29.4352 38.325 29.2002 37.76 29.2002 37.1V20.3C29.2002 19.64 29.4352 19.075 29.9052 18.605C30.3752 18.135 30.9402 17.9 31.6002 17.9H32.8002V16.7C32.8002 16.0373 33.3375 15.5 34.0002 15.5C34.6629 15.5 35.2002 16.0373 35.2002 16.7V17.9H44.8002V16.7C44.8002 16.0373 45.3375 15.5 46.0002 15.5C46.6629 15.5 47.2002 16.0373 47.2002 16.7V17.9H48.4002C49.0602 17.9 49.6252 18.135 50.0952 18.605C50.5652 19.075 50.8002 19.64 50.8002 20.3V37.1C50.8002 37.76 50.5652 38.325 50.0952 38.795C49.6252 39.265 49.0602 39.5 48.4002 39.5H31.6002Z" fill="#CDCDCD"/>
</g>
<path d="M17.1396 48.3877C16.5882 48.3877 16.0915 48.4834 15.6494 48.6748C15.2119 48.8617 14.8382 49.1351 14.5283 49.4951C14.223 49.8506 13.9883 50.2812 13.8242 50.7871C13.6602 51.293 13.5781 51.8626 13.5781 52.4961C13.5781 53.3346 13.708 54.0638 13.9678 54.6836C14.2321 55.2988 14.624 55.7751 15.1436 56.1123C15.6676 56.4495 16.3216 56.6182 17.1055 56.6182C17.5521 56.6182 17.9714 56.5817 18.3633 56.5088C18.7598 56.4313 19.1449 56.3356 19.5186 56.2217V57.2334C19.154 57.3701 18.7712 57.4704 18.3701 57.5342C17.9691 57.6025 17.4928 57.6367 16.9414 57.6367C15.9251 57.6367 15.0752 57.4271 14.3916 57.0078C13.7126 56.584 13.2021 55.987 12.8604 55.2168C12.5231 54.4466 12.3545 53.5374 12.3545 52.4893C12.3545 51.7327 12.4593 51.0423 12.6689 50.418C12.8831 49.7891 13.193 49.2467 13.5986 48.791C14.0088 48.3353 14.5101 47.9844 15.1025 47.7383C15.6995 47.4876 16.3831 47.3623 17.1533 47.3623C17.6592 47.3623 18.1468 47.4124 18.6162 47.5127C19.0856 47.613 19.5094 47.7565 19.8877 47.9434L19.4229 48.9277C19.1038 48.7819 18.7529 48.6566 18.3701 48.5518C17.9919 48.4424 17.5817 48.3877 17.1396 48.3877ZM27.9746 53.7402C27.9746 54.3555 27.8949 54.9046 27.7354 55.3877C27.5758 55.8708 27.3457 56.2786 27.0449 56.6113C26.7441 56.944 26.3796 57.1992 25.9512 57.377C25.5273 57.5501 25.0465 57.6367 24.5088 57.6367C24.0075 57.6367 23.5472 57.5501 23.1279 57.377C22.7132 57.1992 22.3532 56.944 22.0479 56.6113C21.7471 56.2786 21.5124 55.8708 21.3438 55.3877C21.1797 54.9046 21.0977 54.3555 21.0977 53.7402C21.0977 52.9199 21.2367 52.2227 21.5146 51.6484C21.7926 51.0697 22.1891 50.6299 22.7041 50.3291C23.2236 50.0238 23.8411 49.8711 24.5566 49.8711C25.2402 49.8711 25.8372 50.0238 26.3477 50.3291C26.8626 50.6344 27.2614 51.0765 27.5439 51.6553C27.8311 52.2295 27.9746 52.9245 27.9746 53.7402ZM22.2734 53.7402C22.2734 54.3418 22.3532 54.8636 22.5127 55.3057C22.6722 55.7477 22.9183 56.0895 23.251 56.3311C23.5837 56.5726 24.012 56.6934 24.5361 56.6934C25.0557 56.6934 25.4818 56.5726 25.8145 56.3311C26.1517 56.0895 26.4001 55.7477 26.5596 55.3057C26.7191 54.8636 26.7988 54.3418 26.7988 53.7402C26.7988 53.1432 26.7191 52.6283 26.5596 52.1953C26.4001 51.7578 26.154 51.4206 25.8213 51.1836C25.4886 50.9466 25.0579 50.8281 24.5293 50.8281C23.75 50.8281 23.1781 51.0856 22.8135 51.6006C22.4535 52.1156 22.2734 52.8288 22.2734 53.7402ZM33.4844 49.8711C34.373 49.8711 35.0452 50.0898 35.501 50.5273C35.9567 50.9603 36.1846 51.6576 36.1846 52.6191V57.5H35.0635V52.6943C35.0635 52.07 34.9199 51.6029 34.6328 51.293C34.3503 50.9831 33.915 50.8281 33.3271 50.8281C32.4977 50.8281 31.9144 51.0628 31.5771 51.5322C31.2399 52.0016 31.0713 52.6829 31.0713 53.5762V57.5H29.9365V50.0078H30.8525L31.0234 51.0879H31.085C31.2445 50.8236 31.4473 50.6025 31.6934 50.4248C31.9395 50.2425 32.2152 50.1058 32.5205 50.0146C32.8258 49.9189 33.1471 49.8711 33.4844 49.8711ZM40.9424 56.707C41.1292 56.707 41.3206 56.6911 41.5166 56.6592C41.7126 56.6273 41.8721 56.5885 41.9951 56.543V57.4248C41.863 57.484 41.6784 57.5342 41.4414 57.5752C41.209 57.6162 40.9811 57.6367 40.7578 57.6367C40.3613 57.6367 40.0013 57.5684 39.6777 57.4316C39.3542 57.2904 39.0944 57.0534 38.8984 56.7207C38.707 56.388 38.6113 55.9277 38.6113 55.3398V50.8965H37.5449V50.3428L38.6182 49.8984L39.0693 48.2715H39.7529V50.0078H41.9473V50.8965H39.7529V55.3057C39.7529 55.7751 39.86 56.126 40.0742 56.3584C40.293 56.5908 40.5824 56.707 40.9424 56.707ZM46.3154 49.8848C47.2087 49.8848 47.8717 50.0853 48.3047 50.4863C48.7376 50.8874 48.9541 51.5277 48.9541 52.4072V57.5H48.127L47.9082 56.3926H47.8535C47.6439 56.666 47.4251 56.8962 47.1973 57.083C46.9694 57.2653 46.7051 57.4043 46.4043 57.5C46.1081 57.5911 45.7435 57.6367 45.3105 57.6367C44.8548 57.6367 44.4492 57.557 44.0938 57.3975C43.7428 57.238 43.4648 56.9964 43.2598 56.6729C43.0592 56.3493 42.959 55.9391 42.959 55.4424C42.959 54.695 43.2552 54.1208 43.8477 53.7197C44.4401 53.3187 45.3424 53.0999 46.5547 53.0635L47.8467 53.0088V52.5508C47.8467 51.9036 47.7077 51.4502 47.4297 51.1904C47.1517 50.9307 46.7598 50.8008 46.2539 50.8008C45.862 50.8008 45.4883 50.8577 45.1328 50.9717C44.7773 51.0856 44.4401 51.2201 44.1211 51.375L43.7725 50.5137C44.1097 50.3405 44.4971 50.1924 44.9346 50.0693C45.3721 49.9463 45.8324 49.8848 46.3154 49.8848ZM47.833 53.8086L46.6914 53.8564C45.7572 53.8929 45.0986 54.0456 44.7158 54.3145C44.333 54.5833 44.1416 54.9639 44.1416 55.4561C44.1416 55.8844 44.2715 56.2012 44.5312 56.4062C44.791 56.6113 45.1351 56.7139 45.5635 56.7139C46.2288 56.7139 46.7734 56.5293 47.1973 56.1602C47.6211 55.791 47.833 55.2373 47.833 54.499V53.8086ZM54.293 57.6367C53.6185 57.6367 53.0238 57.4977 52.5088 57.2197C51.9938 56.9417 51.5928 56.5179 51.3057 55.9482C51.0186 55.3786 50.875 54.6608 50.875 53.7949C50.875 52.888 51.0254 52.1475 51.3262 51.5732C51.6315 50.9945 52.0508 50.5661 52.584 50.2881C53.1172 50.0101 53.7233 49.8711 54.4023 49.8711C54.776 49.8711 55.1361 49.9098 55.4824 49.9873C55.8333 50.0602 56.1204 50.1536 56.3438 50.2676L56.002 51.2178C55.7741 51.1266 55.5098 51.0446 55.209 50.9717C54.9128 50.8988 54.6348 50.8623 54.375 50.8623C53.8555 50.8623 53.4225 50.974 53.0762 51.1973C52.7344 51.4206 52.4769 51.7487 52.3037 52.1816C52.1351 52.6146 52.0508 53.1478 52.0508 53.7812C52.0508 54.3874 52.1328 54.9046 52.2969 55.333C52.4655 55.7614 52.7139 56.0895 53.042 56.3174C53.3747 56.5407 53.7894 56.6523 54.2861 56.6523C54.6826 56.6523 55.0404 56.6113 55.3594 56.5293C55.6784 56.4427 55.9678 56.3424 56.2275 56.2285V57.2402C55.9769 57.3678 55.6966 57.4658 55.3867 57.5342C55.0814 57.6025 54.7168 57.6367 54.293 57.6367ZM60.4248 56.707C60.6117 56.707 60.8031 56.6911 60.999 56.6592C61.195 56.6273 61.3545 56.5885 61.4775 56.543V57.4248C61.3454 57.484 61.1608 57.5342 60.9238 57.5752C60.6914 57.6162 60.4635 57.6367 60.2402 57.6367C59.8438 57.6367 59.4837 57.5684 59.1602 57.4316C58.8366 57.2904 58.5768 57.0534 58.3809 56.7207C58.1895 56.388 58.0938 55.9277 58.0938 55.3398V50.8965H57.0273V50.3428L58.1006 49.8984L58.5518 48.2715H59.2354V50.0078H61.4297V50.8965H59.2354V55.3057C59.2354 55.7751 59.3424 56.126 59.5566 56.3584C59.7754 56.5908 60.0648 56.707 60.4248 56.707ZM67.8418 55.4492C67.8418 55.9277 67.721 56.3311 67.4795 56.6592C67.2425 56.9827 66.9007 57.2266 66.4541 57.3906C66.012 57.5547 65.4834 57.6367 64.8682 57.6367C64.3441 57.6367 63.8906 57.5957 63.5078 57.5137C63.125 57.4316 62.79 57.3154 62.5029 57.165V56.1191C62.8083 56.2695 63.1729 56.4062 63.5967 56.5293C64.0205 56.6523 64.4535 56.7139 64.8955 56.7139C65.5426 56.7139 66.012 56.609 66.3037 56.3994C66.5954 56.1898 66.7412 55.9049 66.7412 55.5449C66.7412 55.3398 66.682 55.1598 66.5635 55.0049C66.4495 54.8454 66.2559 54.6927 65.9824 54.5469C65.709 54.3965 65.3307 54.2324 64.8477 54.0547C64.3691 53.8724 63.9544 53.6924 63.6035 53.5146C63.2572 53.3324 62.9883 53.1113 62.7969 52.8516C62.61 52.5918 62.5166 52.2546 62.5166 51.8398C62.5166 51.2064 62.7718 50.721 63.2822 50.3838C63.7972 50.042 64.4717 49.8711 65.3057 49.8711C65.7568 49.8711 66.1784 49.9167 66.5703 50.0078C66.9668 50.0944 67.3359 50.2129 67.6777 50.3633L67.2949 51.2725C66.985 51.1403 66.6546 51.0286 66.3037 50.9375C65.9528 50.8464 65.5951 50.8008 65.2305 50.8008C64.7064 50.8008 64.3031 50.8874 64.0205 51.0605C63.7425 51.2337 63.6035 51.4707 63.6035 51.7715C63.6035 52.0039 63.6673 52.1953 63.7949 52.3457C63.9271 52.4961 64.1367 52.6374 64.4238 52.7695C64.7109 52.9017 65.0892 53.0566 65.5586 53.2344C66.028 53.4076 66.4336 53.5876 66.7754 53.7744C67.1172 53.9567 67.3792 54.18 67.5615 54.4443C67.7484 54.7041 67.8418 55.0391 67.8418 55.4492Z" fill="#CDCDCD"/>
</svg>
