<svg width="81" height="76" viewBox="0 0 81 76" fill="none" xmlns="http://www.w3.org/2000/svg">
<mask id="mask0_297742_4463" style="mask-type:alpha" maskUnits="userSpaceOnUse" x="28" y="15" width="25" height="25">
<rect x="28.667" y="15.5" width="24" height="24" fill="#D9D9D9"/>
</mask>
<g mask="url(#mask0_297742_4463)">
<path d="M31.0085 39.5149C30.3646 39.5149 29.8134 39.2856 29.3548 38.827C28.8963 38.3685 28.667 37.8173 28.667 37.1733V20.7826C28.667 20.1387 28.8963 19.5874 29.3548 19.1289C29.8134 18.6703 30.3646 18.4411 31.0085 18.4411H41.4576L39.1161 20.7826H31.0085V37.1733H47.3993V29.0365L49.7408 26.695V37.1733C49.7408 37.8173 49.5115 38.3685 49.053 38.827C48.5944 39.2856 48.0432 39.5149 47.3993 39.5149H31.0085ZM44.0919 19.1142L45.7602 20.7533L38.0331 28.4804V30.1487H39.6722L47.4285 22.3924L49.0969 24.0315L41.3405 31.7878C41.1259 32.0024 40.8771 32.1732 40.5942 32.3C40.3112 32.4268 40.0137 32.4903 39.7015 32.4903H36.8624C36.5306 32.4903 36.2526 32.3781 36.0282 32.1537C35.8038 31.9293 35.6916 31.6512 35.6916 31.3195V28.4804C35.6916 28.1682 35.7501 27.8706 35.8672 27.5877C35.9843 27.3047 36.1501 27.0559 36.3648 26.8413L44.0919 19.1142ZM49.0969 24.0315L44.0919 19.1142L47.0188 16.1873C47.4871 15.719 48.0481 15.4849 48.7017 15.4849C49.3554 15.4849 49.9067 15.719 50.3555 16.1873L51.9945 17.8557C52.4433 18.3045 52.6677 18.8508 52.6677 19.4947C52.6677 20.1387 52.4433 20.685 51.9945 21.1338L49.0969 24.0315Z" fill="#CDCDCD"/>
</g>
<path d="M15.3027 57.5L14.0723 54.3281H10.0664L8.84277 57.5H7.66699L11.5771 47.4648H12.623L16.5059 57.5H15.3027ZM13.7236 53.2959L12.5547 50.1445C12.5273 50.0625 12.4818 49.9281 12.418 49.7412C12.3587 49.5544 12.2972 49.3607 12.2334 49.1602C12.1696 48.9596 12.1172 48.7979 12.0762 48.6748C12.0306 48.8617 11.9805 49.0485 11.9258 49.2354C11.8757 49.4176 11.8255 49.5885 11.7754 49.748C11.7253 49.903 11.682 50.0352 11.6455 50.1445L10.4561 53.2959H13.7236ZM20.3887 57.6367C19.4408 57.6367 18.6888 57.3132 18.1328 56.666C17.5814 56.0189 17.3057 55.0573 17.3057 53.7812C17.3057 52.4915 17.5882 51.5186 18.1533 50.8623C18.7184 50.2015 19.4704 49.8711 20.4092 49.8711C20.8057 49.8711 21.152 49.9235 21.4482 50.0283C21.7445 50.1331 21.9997 50.2744 22.2139 50.4521C22.4281 50.6253 22.6081 50.8236 22.7539 51.0469H22.8359C22.8177 50.9056 22.7995 50.7119 22.7812 50.4658C22.763 50.2197 22.7539 50.0192 22.7539 49.8643V46.8633H23.8887V57.5H22.9727L22.8018 56.4336H22.7539C22.6126 56.6569 22.4326 56.8597 22.2139 57.042C21.9997 57.2243 21.7422 57.3701 21.4414 57.4795C21.1452 57.5843 20.7943 57.6367 20.3887 57.6367ZM20.5664 56.6934C21.3685 56.6934 21.9359 56.4655 22.2686 56.0098C22.6012 55.554 22.7676 54.8773 22.7676 53.9795V53.7744C22.7676 52.8219 22.6081 52.0905 22.2891 51.5801C21.9746 51.0697 21.4004 50.8145 20.5664 50.8145C19.8691 50.8145 19.3473 51.0833 19.001 51.6211C18.6546 52.1543 18.4814 52.8835 18.4814 53.8086C18.4814 54.7292 18.6523 55.4401 18.9941 55.9414C19.3405 56.4427 19.8646 56.6934 20.5664 56.6934ZM28.9609 57.6367C28.013 57.6367 27.2611 57.3132 26.7051 56.666C26.1536 56.0189 25.8779 55.0573 25.8779 53.7812C25.8779 52.4915 26.1605 51.5186 26.7256 50.8623C27.2907 50.2015 28.0426 49.8711 28.9814 49.8711C29.3779 49.8711 29.7243 49.9235 30.0205 50.0283C30.3167 50.1331 30.5719 50.2744 30.7861 50.4521C31.0003 50.6253 31.1803 50.8236 31.3262 51.0469H31.4082C31.39 50.9056 31.3717 50.7119 31.3535 50.4658C31.3353 50.2197 31.3262 50.0192 31.3262 49.8643V46.8633H32.4609V57.5H31.5449L31.374 56.4336H31.3262C31.1849 56.6569 31.0049 56.8597 30.7861 57.042C30.5719 57.2243 30.3145 57.3701 30.0137 57.4795C29.7174 57.5843 29.3665 57.6367 28.9609 57.6367ZM29.1387 56.6934C29.9408 56.6934 30.5081 56.4655 30.8408 56.0098C31.1735 55.554 31.3398 54.8773 31.3398 53.9795V53.7744C31.3398 52.8219 31.1803 52.0905 30.8613 51.5801C30.5469 51.0697 29.9727 50.8145 29.1387 50.8145C28.4414 50.8145 27.9196 51.0833 27.5732 51.6211C27.2269 52.1543 27.0537 52.8835 27.0537 53.8086C27.0537 54.7292 27.2246 55.4401 27.5664 55.9414C27.9128 56.4427 28.4368 56.6934 29.1387 56.6934ZM41.7441 57.5H40.5752V48.5312H37.4307V47.5059H44.875V48.5312H41.7441V57.5ZM49.0176 49.8848C49.9108 49.8848 50.5739 50.0853 51.0068 50.4863C51.4398 50.8874 51.6562 51.5277 51.6562 52.4072V57.5H50.8291L50.6104 56.3926H50.5557C50.346 56.666 50.1273 56.8962 49.8994 57.083C49.6715 57.2653 49.4072 57.4043 49.1064 57.5C48.8102 57.5911 48.4456 57.6367 48.0127 57.6367C47.557 57.6367 47.1514 57.557 46.7959 57.3975C46.445 57.238 46.167 56.9964 45.9619 56.6729C45.7614 56.3493 45.6611 55.9391 45.6611 55.4424C45.6611 54.695 45.9574 54.1208 46.5498 53.7197C47.1423 53.3187 48.0446 53.0999 49.2568 53.0635L50.5488 53.0088V52.5508C50.5488 51.9036 50.4098 51.4502 50.1318 51.1904C49.8538 50.9307 49.4619 50.8008 48.9561 50.8008C48.5641 50.8008 48.1904 50.8577 47.835 50.9717C47.4795 51.0856 47.1423 51.2201 46.8232 51.375L46.4746 50.5137C46.8118 50.3405 47.1992 50.1924 47.6367 50.0693C48.0742 49.9463 48.5345 49.8848 49.0176 49.8848ZM50.5352 53.8086L49.3936 53.8564C48.4593 53.8929 47.8008 54.0456 47.418 54.3145C47.0352 54.5833 46.8438 54.9639 46.8438 55.4561C46.8438 55.8844 46.9736 56.2012 47.2334 56.4062C47.4932 56.6113 47.8372 56.7139 48.2656 56.7139C48.931 56.7139 49.4756 56.5293 49.8994 56.1602C50.3232 55.791 50.5352 55.2373 50.5352 54.499V53.8086ZM58.8408 55.4492C58.8408 55.9277 58.7201 56.3311 58.4785 56.6592C58.2415 56.9827 57.8997 57.2266 57.4531 57.3906C57.0111 57.5547 56.4824 57.6367 55.8672 57.6367C55.3431 57.6367 54.8896 57.5957 54.5068 57.5137C54.124 57.4316 53.7891 57.3154 53.502 57.165V56.1191C53.8073 56.2695 54.1719 56.4062 54.5957 56.5293C55.0195 56.6523 55.4525 56.7139 55.8945 56.7139C56.5417 56.7139 57.0111 56.609 57.3027 56.3994C57.5944 56.1898 57.7402 55.9049 57.7402 55.5449C57.7402 55.3398 57.681 55.1598 57.5625 55.0049C57.4486 54.8454 57.2549 54.6927 56.9814 54.5469C56.708 54.3965 56.3298 54.2324 55.8467 54.0547C55.3682 53.8724 54.9535 53.6924 54.6025 53.5146C54.2562 53.3324 53.9873 53.1113 53.7959 52.8516C53.609 52.5918 53.5156 52.2546 53.5156 51.8398C53.5156 51.2064 53.7708 50.721 54.2812 50.3838C54.7962 50.042 55.4707 49.8711 56.3047 49.8711C56.7559 49.8711 57.1774 49.9167 57.5693 50.0078C57.9658 50.0944 58.335 50.2129 58.6768 50.3633L58.2939 51.2725C57.984 51.1403 57.6536 51.0286 57.3027 50.9375C56.9518 50.8464 56.5941 50.8008 56.2295 50.8008C55.7054 50.8008 55.3021 50.8874 55.0195 51.0605C54.7415 51.2337 54.6025 51.4707 54.6025 51.7715C54.6025 52.0039 54.6663 52.1953 54.7939 52.3457C54.9261 52.4961 55.1357 52.6374 55.4229 52.7695C55.71 52.9017 56.0882 53.0566 56.5576 53.2344C57.027 53.4076 57.4326 53.5876 57.7744 53.7744C58.1162 53.9567 58.3783 54.18 58.5605 54.4443C58.7474 54.7041 58.8408 55.0391 58.8408 55.4492ZM61.7939 46.8633V52.3867C61.7939 52.569 61.7871 52.7923 61.7734 53.0566C61.7598 53.3164 61.7484 53.5465 61.7393 53.7471H61.7871C61.8828 53.6286 62.0218 53.4531 62.2041 53.2207C62.391 52.9883 62.5482 52.8014 62.6758 52.6602L65.1641 50.0078H66.4971L63.4824 53.207L66.7158 57.5H65.3486L62.7031 53.9521L61.7939 54.7861V57.5H60.666V46.8633H61.7939ZM72.8682 55.4492C72.8682 55.9277 72.7474 56.3311 72.5059 56.6592C72.2689 56.9827 71.9271 57.2266 71.4805 57.3906C71.0384 57.5547 70.5098 57.6367 69.8945 57.6367C69.3704 57.6367 68.917 57.5957 68.5342 57.5137C68.1514 57.4316 67.8164 57.3154 67.5293 57.165V56.1191C67.8346 56.2695 68.1992 56.4062 68.623 56.5293C69.0469 56.6523 69.4798 56.7139 69.9219 56.7139C70.569 56.7139 71.0384 56.609 71.3301 56.3994C71.6217 56.1898 71.7676 55.9049 71.7676 55.5449C71.7676 55.3398 71.7083 55.1598 71.5898 55.0049C71.4759 54.8454 71.2822 54.6927 71.0088 54.5469C70.7354 54.3965 70.3571 54.2324 69.874 54.0547C69.3955 53.8724 68.9808 53.6924 68.6299 53.5146C68.2835 53.3324 68.0146 53.1113 67.8232 52.8516C67.6364 52.5918 67.543 52.2546 67.543 51.8398C67.543 51.2064 67.7982 50.721 68.3086 50.3838C68.8236 50.042 69.498 49.8711 70.332 49.8711C70.7832 49.8711 71.2048 49.9167 71.5967 50.0078C71.9932 50.0944 72.3623 50.2129 72.7041 50.3633L72.3213 51.2725C72.0114 51.1403 71.681 51.0286 71.3301 50.9375C70.9792 50.8464 70.6214 50.8008 70.2568 50.8008C69.7327 50.8008 69.3294 50.8874 69.0469 51.0605C68.7689 51.2337 68.6299 51.4707 68.6299 51.7715C68.6299 52.0039 68.6937 52.1953 68.8213 52.3457C68.9535 52.4961 69.1631 52.6374 69.4502 52.7695C69.7373 52.9017 70.1156 53.0566 70.585 53.2344C71.0544 53.4076 71.46 53.5876 71.8018 53.7744C72.1436 53.9567 72.4056 54.18 72.5879 54.4443C72.7747 54.7041 72.8682 55.0391 72.8682 55.4492Z" fill="#CDCDCD"/>
</svg>
