<svg width="80" height="76" viewBox="0 0 80 76" fill="none" xmlns="http://www.w3.org/2000/svg">
<mask id="mask0_298837_594" style="mask-type:alpha" maskUnits="userSpaceOnUse" x="28" y="15" width="24" height="25">
<rect x="28" y="15.5" width="24" height="24" fill="#D9D9D9"/>
</mask>
<g mask="url(#mask0_298837_594)">
<mask id="mask1_298837_594" style="mask-type:alpha" maskUnits="userSpaceOnUse" x="30" y="17" width="26" height="27">
<rect x="30" y="17.5342" width="26" height="26" fill="#D9D9D9"/>
</mask>
<g mask="url(#mask1_298837_594)">
<path d="M40.8669 35.3274C40.6213 35.3274 40.4155 35.2443 40.2494 35.0782C40.0833 34.9121 40.0002 34.7062 40.0002 34.4607C40.0002 34.2151 40.0833 34.0093 40.2494 33.8432C40.4155 33.6771 40.6213 33.594 40.8669 33.594H46.0669V21.4607H40.8669C40.6213 21.4607 40.4155 21.3776 40.2494 21.2115C40.0833 21.0454 40.0002 20.8396 40.0002 20.594C40.0002 20.3485 40.0833 20.1426 40.2494 19.9765C40.4155 19.8104 40.6213 19.7274 40.8669 19.7274H46.0669C46.5435 19.7274 46.9516 19.8971 47.291 20.2365C47.6305 20.576 47.8002 20.984 47.8002 21.4607V33.594C47.8002 34.0707 47.6305 34.4787 47.291 34.8182C46.9516 35.1576 46.5435 35.3274 46.0669 35.3274H40.8669ZM39.2852 28.394H33.0669C32.8213 28.394 32.6155 28.311 32.4494 28.1449C32.2833 27.9787 32.2002 27.7729 32.2002 27.5274C32.2002 27.2818 32.2833 27.076 32.4494 26.9099C32.6155 26.7437 32.8213 26.6607 33.0669 26.6607H39.2852L37.6602 25.0357C37.5013 24.8768 37.4219 24.6818 37.4219 24.4507C37.4219 24.2196 37.5013 24.0174 37.6602 23.844C37.8191 23.6707 38.0213 23.5804 38.2669 23.5732C38.5124 23.566 38.7219 23.649 38.8952 23.8224L41.9935 26.9207C42.1669 27.094 42.2535 27.2962 42.2535 27.5274C42.2535 27.7585 42.1669 27.9607 41.9935 28.134L38.8952 31.2324C38.7219 31.4057 38.516 31.4887 38.2777 31.4815C38.0394 31.4743 37.8335 31.384 37.6602 31.2107C37.5013 31.0374 37.4255 30.8315 37.4327 30.5932C37.4399 30.3549 37.523 30.1562 37.6819 29.9974L39.2852 28.394Z" fill="#CDCDCD"/>
</g>
</g>
<path d="M21.3672 57.5V47.5059H22.5293V56.4609H26.9658V57.5H21.3672ZM34.9707 53.7402C34.9707 54.3555 34.891 54.9046 34.7314 55.3877C34.5719 55.8708 34.3418 56.2786 34.041 56.6113C33.7402 56.944 33.3757 57.1992 32.9473 57.377C32.5234 57.5501 32.0426 57.6367 31.5049 57.6367C31.0036 57.6367 30.5433 57.5501 30.124 57.377C29.7093 57.1992 29.3493 56.944 29.0439 56.6113C28.7432 56.2786 28.5085 55.8708 28.3398 55.3877C28.1758 54.9046 28.0938 54.3555 28.0938 53.7402C28.0938 52.9199 28.2327 52.2227 28.5107 51.6484C28.7887 51.0697 29.1852 50.6299 29.7002 50.3291C30.2197 50.0238 30.8372 49.8711 31.5527 49.8711C32.2363 49.8711 32.8333 50.0238 33.3438 50.3291C33.8587 50.6344 34.2575 51.0765 34.54 51.6553C34.8271 52.2295 34.9707 52.9245 34.9707 53.7402ZM29.2695 53.7402C29.2695 54.3418 29.3493 54.8636 29.5088 55.3057C29.6683 55.7477 29.9144 56.0895 30.2471 56.3311C30.5798 56.5726 31.0081 56.6934 31.5322 56.6934C32.0518 56.6934 32.4779 56.5726 32.8105 56.3311C33.1478 56.0895 33.3962 55.7477 33.5557 55.3057C33.7152 54.8636 33.7949 54.3418 33.7949 53.7402C33.7949 53.1432 33.7152 52.6283 33.5557 52.1953C33.3962 51.7578 33.1501 51.4206 32.8174 51.1836C32.4847 50.9466 32.054 50.8281 31.5254 50.8281C30.7461 50.8281 30.1742 51.0856 29.8096 51.6006C29.4495 52.1156 29.2695 52.8288 29.2695 53.7402ZM39.0244 60.8633C38.04 60.8633 37.2812 60.6787 36.748 60.3096C36.2148 59.945 35.9482 59.4323 35.9482 58.7715C35.9482 58.3021 36.0964 57.901 36.3926 57.5684C36.6934 57.2357 37.1081 57.0146 37.6367 56.9053C37.4408 56.8141 37.2721 56.6774 37.1309 56.4951C36.9941 56.3128 36.9258 56.1032 36.9258 55.8662C36.9258 55.5928 37.001 55.3535 37.1514 55.1484C37.3063 54.9388 37.541 54.7383 37.8555 54.5469C37.4635 54.3874 37.1445 54.1185 36.8984 53.7402C36.6569 53.3574 36.5361 52.9131 36.5361 52.4072C36.5361 51.8695 36.6478 51.4115 36.8711 51.0332C37.0944 50.6504 37.418 50.3587 37.8418 50.1582C38.2656 49.9577 38.7783 49.8574 39.3799 49.8574C39.512 49.8574 39.6442 49.8643 39.7764 49.8779C39.9131 49.887 40.043 49.903 40.166 49.9258C40.2891 49.944 40.3962 49.9668 40.4873 49.9941H43.0576V50.7256L41.6768 50.8965C41.8135 51.0742 41.9274 51.2884 42.0186 51.5391C42.1097 51.7897 42.1553 52.0677 42.1553 52.373C42.1553 53.1204 41.9023 53.7152 41.3965 54.1572C40.8906 54.5947 40.1956 54.8135 39.3115 54.8135C39.1019 54.8135 38.8877 54.7952 38.6689 54.7588C38.4456 54.8818 38.2747 55.0186 38.1562 55.1689C38.0423 55.3193 37.9854 55.4925 37.9854 55.6885C37.9854 55.8343 38.0286 55.9505 38.1152 56.0371C38.2064 56.1237 38.3363 56.1875 38.5049 56.2285C38.6735 56.265 38.8763 56.2832 39.1133 56.2832H40.4326C41.2484 56.2832 41.8727 56.4541 42.3057 56.7959C42.7432 57.1377 42.9619 57.6367 42.9619 58.293C42.9619 59.1224 42.6247 59.7581 41.9502 60.2002C41.2757 60.6423 40.3005 60.8633 39.0244 60.8633ZM39.0586 59.9746C39.6784 59.9746 40.1911 59.9108 40.5967 59.7832C41.0068 59.6602 41.3122 59.4801 41.5127 59.2432C41.7178 59.0107 41.8203 58.7327 41.8203 58.4092C41.8203 58.1084 41.752 57.8805 41.6152 57.7256C41.4785 57.5752 41.278 57.4749 41.0137 57.4248C40.7493 57.3701 40.4258 57.3428 40.043 57.3428H38.7441C38.4069 57.3428 38.113 57.3952 37.8623 57.5C37.6117 57.6048 37.418 57.7598 37.2812 57.9648C37.1491 58.1699 37.083 58.4251 37.083 58.7305C37.083 59.1361 37.2539 59.4437 37.5957 59.6533C37.9375 59.8675 38.4251 59.9746 39.0586 59.9746ZM39.3525 53.9863C39.8949 53.9863 40.3027 53.8496 40.5762 53.5762C40.8496 53.3027 40.9863 52.904 40.9863 52.3799C40.9863 51.8193 40.8473 51.4001 40.5693 51.1221C40.2913 50.8395 39.8812 50.6982 39.3389 50.6982C38.8193 50.6982 38.4183 50.8441 38.1357 51.1357C37.8577 51.4229 37.7188 51.8444 37.7188 52.4004C37.7188 52.9108 37.86 53.3027 38.1426 53.5762C38.4251 53.8496 38.8285 53.9863 39.3525 53.9863ZM48.3418 57.5V47.5059H49.5039V57.5H48.3418ZM55.6289 49.8711C56.5176 49.8711 57.1898 50.0898 57.6455 50.5273C58.1012 50.9603 58.3291 51.6576 58.3291 52.6191V57.5H57.208V52.6943C57.208 52.07 57.0645 51.6029 56.7773 51.293C56.4948 50.9831 56.0596 50.8281 55.4717 50.8281C54.6423 50.8281 54.0589 51.0628 53.7217 51.5322C53.3844 52.0016 53.2158 52.6829 53.2158 53.5762V57.5H52.0811V50.0078H52.9971L53.168 51.0879H53.2295C53.389 50.8236 53.5918 50.6025 53.8379 50.4248C54.084 50.2425 54.3597 50.1058 54.665 50.0146C54.9704 49.9189 55.2917 49.8711 55.6289 49.8711Z" fill="#CDCDCD"/>
</svg>
